<?xml version="1.0" encoding="us-ascii" standalone="no"?><svg xmlns="http://www.w3.org/2000/svg" xmlns:xlink="http://www.w3.org/1999/xlink" contentStyleType="text/css" height="870px" preserveAspectRatio="none" style="width:2810px;height:870px;background:#FFFFFF;" version="1.1" viewBox="0 0 2810 870" width="2810px" zoomAndPan="magnify"><defs/><g><!--cluster GameLogic--><g id="cluster_GameLogic"><path d="M1927.5,304 L2017.5,304 A3.75,3.75 0 0 1 2020,306.5 L2027,326.2969 L2800.5,326.2969 A2.5,2.5 0 0 1 2803,328.7969 L2803,860.5 A2.5,2.5 0 0 1 2800.5,863 L1927.5,863 A2.5,2.5 0 0 1 1925,860.5 L1925,306.5 A2.5,2.5 0 0 1 1927.5,304 " fill="none" style="stroke:#000000;stroke-width:1.5;"/><line style="stroke:#000000;stroke-width:1.5;" x1="1925" x2="2027" y1="326.2969" y2="326.2969"/><text fill="#000000" font-family="sans-serif" font-size="14" font-weight="bold" lengthAdjust="spacing" textLength="89" x="1929" y="318.9951">GameLogic</text></g><!--cluster Utils--><g id="cluster_Utils"><path d="M1985.5,6 L2024.5,6 A3.75,3.75 0 0 1 2027,8.5 L2034,28.2969 L2345.5,28.2969 A2.5,2.5 0 0 1 2348,30.7969 L2348,110.5 A2.5,2.5 0 0 1 2345.5,113 L1985.5,113 A2.5,2.5 0 0 1 1983,110.5 L1983,8.5 A2.5,2.5 0 0 1 1985.5,6 " fill="none" style="stroke:#000000;stroke-width:1.5;"/><line style="stroke:#000000;stroke-width:1.5;" x1="1983" x2="2034" y1="28.2969" y2="28.2969"/><text fill="#000000" font-family="sans-serif" font-size="14" font-weight="bold" lengthAdjust="spacing" textLength="38" x="1987" y="20.9951">Utils</text></g><!--cluster UI--><g id="cluster_UI"><path d="M8.5,154 L25.5,154 A3.75,3.75 0 0 1 28,156.5 L35,176.2969 L1890.5,176.2969 A2.5,2.5 0 0 1 1893,178.7969 L1893,733.5 A2.5,2.5 0 0 1 1890.5,736 L8.5,736 A2.5,2.5 0 0 1 6,733.5 L6,156.5 A2.5,2.5 0 0 1 8.5,154 " fill="none" style="stroke:#000000;stroke-width:1.5;"/><line style="stroke:#000000;stroke-width:1.5;" x1="6" x2="35" y1="176.2969" y2="176.2969"/><text fill="#000000" font-family="sans-serif" font-size="14" font-weight="bold" lengthAdjust="spacing" textLength="16" x="10" y="168.9951">UI</text></g><!--cluster Board--><g id="cluster_Board"><path d="M440.5,300 L489.5,300 A3.75,3.75 0 0 1 492,302.5 L499,322.2969 L1010.5,322.2969 A2.5,2.5 0 0 1 1013,324.7969 L1013,559.5 A2.5,2.5 0 0 1 1010.5,562 L440.5,562 A2.5,2.5 0 0 1 438,559.5 L438,302.5 A2.5,2.5 0 0 1 440.5,300 " fill="none" style="stroke:#000000;stroke-width:1.5;"/><line style="stroke:#000000;stroke-width:1.5;" x1="438" x2="499" y1="322.2969" y2="322.2969"/><text fill="#000000" font-family="sans-serif" font-size="14" font-weight="bold" lengthAdjust="spacing" textLength="48" x="442" y="314.9951">Board</text></g><!--cluster Player--><g id="cluster_Player"><path d="M1055.5,300 L1106.5,300 A3.75,3.75 0 0 1 1109,302.5 L1116,322.2969 L1850.5,322.2969 A2.5,2.5 0 0 1 1853,324.7969 L1853,412.5 A2.5,2.5 0 0 1 1850.5,415 L1055.5,415 A2.5,2.5 0 0 1 1053,412.5 L1053,302.5 A2.5,2.5 0 0 1 1055.5,300 " fill="none" style="stroke:#000000;stroke-width:1.5;"/><line style="stroke:#000000;stroke-width:1.5;" x1="1053" x2="1116" y1="322.2969" y2="322.2969"/><text fill="#000000" font-family="sans-serif" font-size="14" font-weight="bold" lengthAdjust="spacing" textLength="50" x="1057" y="314.9951">Player</text></g><!--class EnumAction--><g id="elem_EnumAction"><rect codeLine="2" fill="#F1F1F1" height="48" id="EnumAction" rx="2.5" ry="2.5" style="stroke:#181818;stroke-width:0.5;" width="119" x="2213.5" y="795"/><ellipse cx="2228.5" cy="811" fill="#EB937F" rx="11" ry="11" style="stroke:#181818;stroke-width:1.0;"/><path d="M2227.2969,811.875 L2228.75,811.875 L2228.75,811.9844 C2228.75,812.3906 2228.7813,812.5469 2228.8594,812.7031 C2229.0156,812.9531 2229.2969,813.1094 2229.5938,813.1094 C2229.8438,813.1094 2230.1094,812.9688 2230.2656,812.75 C2230.3906,812.5938 2230.4219,812.4375 2230.4219,811.9844 L2230.4219,810.0625 C2230.4219,809.9063 2230.4219,809.8594 2230.4063,809.7031 C2230.3438,809.2344 2230.0313,808.9219 2229.5781,808.9219 C2229.3281,808.9219 2229.0625,809.0625 2228.8906,809.2813 C2228.7813,809.4531 2228.75,809.6094 2228.75,810.0625 L2228.75,810.1875 L2227.2969,810.1875 L2227.2969,807.7813 L2231.2813,807.7813 L2231.2813,808.6406 C2231.2813,809.0469 2231.3125,809.2188 2231.3906,809.375 C2231.5625,809.625 2231.8438,809.7813 2232.125,809.7813 C2232.3906,809.7813 2232.6563,809.6406 2232.8281,809.4219 C2232.9375,809.25 2232.9688,809.1094 2232.9688,808.6406 L2232.9688,806.0938 L2225.3438,806.0938 C2224.9063,806.0938 2224.7813,806.1094 2224.625,806.2031 C2224.375,806.3594 2224.2188,806.6563 2224.2188,806.9375 C2224.2188,807.2188 2224.3594,807.4688 2224.5781,807.6406 C2224.7344,807.75 2224.9219,807.7813 2225.3438,807.7813 L2225.5938,807.7813 L2225.5938,814.2969 L2225.3438,814.2969 C2224.9375,814.2969 2224.7813,814.3125 2224.625,814.4219 C2224.375,814.5938 2224.2188,814.8594 2224.2188,815.1563 C2224.2188,815.4219 2224.3594,815.6719 2224.5781,815.8281 C2224.7188,815.9531 2224.9531,816 2225.3438,816 L2233.3438,816 L2233.3438,813.4219 C2233.3438,812.9844 2233.3125,812.8438 2233.2344,812.6875 C2233.0625,812.4375 2232.7813,812.2813 2232.5,812.2813 C2232.2344,812.2813 2231.9688,812.3906 2231.7969,812.6406 C2231.6875,812.7969 2231.6563,812.9375 2231.6563,813.4219 L2231.6563,814.2969 L2227.2969,814.2969 L2227.2969,811.875 Z " fill="#000000"/><text fill="#000000" font-family="sans-serif" font-size="14" lengthAdjust="spacing" textLength="87" x="2242.5" y="815.8467">EnumAction</text><line style="stroke:#181818;stroke-width:0.5;" x1="2214.5" x2="2331.5" y1="827" y2="827"/><line style="stroke:#181818;stroke-width:0.5;" x1="2214.5" x2="2331.5" y1="835" y2="835"/></g><!--class Board--><g id="elem_Board"><rect codeLine="3" fill="#F1F1F1" height="48" id="Board" rx="2.5" ry="2.5" style="stroke:#181818;stroke-width:0.5;" width="74" x="2491" y="586"/><ellipse cx="2506" cy="602" fill="#ADD1B2" rx="11" ry="11" style="stroke:#181818;stroke-width:1.0;"/><path d="M2508.3438,597.6719 C2507.4063,597.2344 2506.8125,597.0938 2505.9375,597.0938 C2503.3125,597.0938 2501.3125,599.1719 2501.3125,601.8906 L2501.3125,603.0156 C2501.3125,605.5938 2503.4219,607.4844 2506.3125,607.4844 C2507.5313,607.4844 2508.6875,607.1875 2509.4375,606.6406 C2510.0156,606.2344 2510.3438,605.7813 2510.3438,605.3906 C2510.3438,604.9375 2509.9531,604.5469 2509.4844,604.5469 C2509.2656,604.5469 2509.0625,604.625 2508.875,604.8125 C2508.4219,605.2969 2508.4219,605.2969 2508.2344,605.3906 C2507.8125,605.6563 2507.125,605.7813 2506.3594,605.7813 C2504.3125,605.7813 2503.0156,604.6875 2503.0156,602.9844 L2503.0156,601.8906 C2503.0156,600.1094 2504.2656,598.7969 2506,598.7969 C2506.5781,598.7969 2507.1875,598.9531 2507.6563,599.2031 C2508.1406,599.4844 2508.3125,599.7031 2508.4063,600.1094 C2508.4688,600.5156 2508.5,600.6406 2508.6406,600.7656 C2508.7813,600.9063 2509.0156,601.0156 2509.2344,601.0156 C2509.5,601.0156 2509.7656,600.875 2509.9375,600.6563 C2510.0469,600.5 2510.0781,600.3125 2510.0781,599.8906 L2510.0781,598.4688 C2510.0781,598.0313 2510.0625,597.9063 2509.9688,597.75 C2509.8125,597.4844 2509.5313,597.3438 2509.2344,597.3438 C2508.9375,597.3438 2508.7344,597.4375 2508.5156,597.75 L2508.3438,597.6719 Z " fill="#000000"/><text fill="#000000" font-family="sans-serif" font-size="14" lengthAdjust="spacing" textLength="42" x="2520" y="606.8467">Board</text><line style="stroke:#181818;stroke-width:0.5;" x1="2492" x2="2564" y1="618" y2="618"/><line style="stroke:#181818;stroke-width:0.5;" x1="2492" x2="2564" y1="626" y2="626"/></g><!--class Bag--><g id="elem_Bag"><rect codeLine="4" fill="#F1F1F1" height="48" id="Bag" rx="2.5" ry="2.5" style="stroke:#181818;stroke-width:0.5;" width="59" x="2093.5" y="586"/><ellipse cx="2108.5" cy="602" fill="#ADD1B2" rx="11" ry="11" style="stroke:#181818;stroke-width:1.0;"/><path d="M2110.8438,597.6719 C2109.9063,597.2344 2109.3125,597.0938 2108.4375,597.0938 C2105.8125,597.0938 2103.8125,599.1719 2103.8125,601.8906 L2103.8125,603.0156 C2103.8125,605.5938 2105.9219,607.4844 2108.8125,607.4844 C2110.0313,607.4844 2111.1875,607.1875 2111.9375,606.6406 C2112.5156,606.2344 2112.8438,605.7813 2112.8438,605.3906 C2112.8438,604.9375 2112.4531,604.5469 2111.9844,604.5469 C2111.7656,604.5469 2111.5625,604.625 2111.375,604.8125 C2110.9219,605.2969 2110.9219,605.2969 2110.7344,605.3906 C2110.3125,605.6563 2109.625,605.7813 2108.8594,605.7813 C2106.8125,605.7813 2105.5156,604.6875 2105.5156,602.9844 L2105.5156,601.8906 C2105.5156,600.1094 2106.7656,598.7969 2108.5,598.7969 C2109.0781,598.7969 2109.6875,598.9531 2110.1563,599.2031 C2110.6406,599.4844 2110.8125,599.7031 2110.9063,600.1094 C2110.9688,600.5156 2111,600.6406 2111.1406,600.7656 C2111.2813,600.9063 2111.5156,601.0156 2111.7344,601.0156 C2112,601.0156 2112.2656,600.875 2112.4375,600.6563 C2112.5469,600.5 2112.5781,600.3125 2112.5781,599.8906 L2112.5781,598.4688 C2112.5781,598.0313 2112.5625,597.9063 2112.4688,597.75 C2112.3125,597.4844 2112.0313,597.3438 2111.7344,597.3438 C2111.4375,597.3438 2111.2344,597.4375 2111.0156,597.75 L2110.8438,597.6719 Z " fill="#000000"/><text fill="#000000" font-family="sans-serif" font-size="14" lengthAdjust="spacing" textLength="27" x="2122.5" y="606.8467">Bag</text><line style="stroke:#181818;stroke-width:0.5;" x1="2094.5" x2="2151.5" y1="618" y2="618"/><line style="stroke:#181818;stroke-width:0.5;" x1="2094.5" x2="2151.5" y1="626" y2="626"/></g><!--class Card--><g id="elem_Card"><rect codeLine="5" fill="#F1F1F1" height="48" id="Card" rx="2.5" ry="2.5" style="stroke:#181818;stroke-width:0.5;" width="65" x="2204.5" y="664"/><ellipse cx="2219.5" cy="680" fill="#ADD1B2" rx="11" ry="11" style="stroke:#181818;stroke-width:1.0;"/><path d="M2221.8438,675.6719 C2220.9063,675.2344 2220.3125,675.0938 2219.4375,675.0938 C2216.8125,675.0938 2214.8125,677.1719 2214.8125,679.8906 L2214.8125,681.0156 C2214.8125,683.5938 2216.9219,685.4844 2219.8125,685.4844 C2221.0313,685.4844 2222.1875,685.1875 2222.9375,684.6406 C2223.5156,684.2344 2223.8438,683.7813 2223.8438,683.3906 C2223.8438,682.9375 2223.4531,682.5469 2222.9844,682.5469 C2222.7656,682.5469 2222.5625,682.625 2222.375,682.8125 C2221.9219,683.2969 2221.9219,683.2969 2221.7344,683.3906 C2221.3125,683.6563 2220.625,683.7813 2219.8594,683.7813 C2217.8125,683.7813 2216.5156,682.6875 2216.5156,680.9844 L2216.5156,679.8906 C2216.5156,678.1094 2217.7656,676.7969 2219.5,676.7969 C2220.0781,676.7969 2220.6875,676.9531 2221.1563,677.2031 C2221.6406,677.4844 2221.8125,677.7031 2221.9063,678.1094 C2221.9688,678.5156 2222,678.6406 2222.1406,678.7656 C2222.2813,678.9063 2222.5156,679.0156 2222.7344,679.0156 C2223,679.0156 2223.2656,678.875 2223.4375,678.6563 C2223.5469,678.5 2223.5781,678.3125 2223.5781,677.8906 L2223.5781,676.4688 C2223.5781,676.0313 2223.5625,675.9063 2223.4688,675.75 C2223.3125,675.4844 2223.0313,675.3438 2222.7344,675.3438 C2222.4375,675.3438 2222.2344,675.4375 2222.0156,675.75 L2221.8438,675.6719 Z " fill="#000000"/><text fill="#000000" font-family="sans-serif" font-size="14" lengthAdjust="spacing" textLength="33" x="2233.5" y="684.8467">Card</text><line style="stroke:#181818;stroke-width:0.5;" x1="2205.5" x2="2268.5" y1="696" y2="696"/><line style="stroke:#181818;stroke-width:0.5;" x1="2205.5" x2="2268.5" y1="704" y2="704"/></g><!--class DrawPile--><g id="elem_DrawPile"><rect codeLine="6" fill="#F1F1F1" height="48" id="DrawPile" rx="2.5" ry="2.5" style="stroke:#181818;stroke-width:0.5;" width="94" x="2126" y="490"/><ellipse cx="2141" cy="506" fill="#ADD1B2" rx="11" ry="11" style="stroke:#181818;stroke-width:1.0;"/><path d="M2143.3438,501.6719 C2142.4063,501.2344 2141.8125,501.0938 2140.9375,501.0938 C2138.3125,501.0938 2136.3125,503.1719 2136.3125,505.8906 L2136.3125,507.0156 C2136.3125,509.5938 2138.4219,511.4844 2141.3125,511.4844 C2142.5313,511.4844 2143.6875,511.1875 2144.4375,510.6406 C2145.0156,510.2344 2145.3438,509.7813 2145.3438,509.3906 C2145.3438,508.9375 2144.9531,508.5469 2144.4844,508.5469 C2144.2656,508.5469 2144.0625,508.625 2143.875,508.8125 C2143.4219,509.2969 2143.4219,509.2969 2143.2344,509.3906 C2142.8125,509.6563 2142.125,509.7813 2141.3594,509.7813 C2139.3125,509.7813 2138.0156,508.6875 2138.0156,506.9844 L2138.0156,505.8906 C2138.0156,504.1094 2139.2656,502.7969 2141,502.7969 C2141.5781,502.7969 2142.1875,502.9531 2142.6563,503.2031 C2143.1406,503.4844 2143.3125,503.7031 2143.4063,504.1094 C2143.4688,504.5156 2143.5,504.6406 2143.6406,504.7656 C2143.7813,504.9063 2144.0156,505.0156 2144.2344,505.0156 C2144.5,505.0156 2144.7656,504.875 2144.9375,504.6563 C2145.0469,504.5 2145.0781,504.3125 2145.0781,503.8906 L2145.0781,502.4688 C2145.0781,502.0313 2145.0625,501.9063 2144.9688,501.75 C2144.8125,501.4844 2144.5313,501.3438 2144.2344,501.3438 C2143.9375,501.3438 2143.7344,501.4375 2143.5156,501.75 L2143.3438,501.6719 Z " fill="#000000"/><text fill="#000000" font-family="sans-serif" font-size="14" lengthAdjust="spacing" textLength="62" x="2155" y="510.8467">DrawPile</text><line style="stroke:#181818;stroke-width:0.5;" x1="2127" x2="2219" y1="522" y2="522"/><line style="stroke:#181818;stroke-width:0.5;" x1="2127" x2="2219" y1="530" y2="530"/></g><!--class GameFactory--><g id="elem_GameFactory"><rect codeLine="7" fill="#F1F1F1" height="56.2656" id="GameFactory" rx="2.5" ry="2.5" style="stroke:#181818;stroke-width:0.5;" width="128" x="2427" y="339"/><ellipse cx="2442" cy="359.1328" fill="#ADD1B2" rx="11" ry="11" style="stroke:#181818;stroke-width:1.0;"/><path d="M2444.3438,354.8047 C2443.4063,354.3672 2442.8125,354.2266 2441.9375,354.2266 C2439.3125,354.2266 2437.3125,356.3047 2437.3125,359.0234 L2437.3125,360.1484 C2437.3125,362.7266 2439.4219,364.6172 2442.3125,364.6172 C2443.5313,364.6172 2444.6875,364.3203 2445.4375,363.7734 C2446.0156,363.3672 2446.3438,362.9141 2446.3438,362.5234 C2446.3438,362.0703 2445.9531,361.6797 2445.4844,361.6797 C2445.2656,361.6797 2445.0625,361.7578 2444.875,361.9453 C2444.4219,362.4297 2444.4219,362.4297 2444.2344,362.5234 C2443.8125,362.7891 2443.125,362.9141 2442.3594,362.9141 C2440.3125,362.9141 2439.0156,361.8203 2439.0156,360.1172 L2439.0156,359.0234 C2439.0156,357.2422 2440.2656,355.9297 2442,355.9297 C2442.5781,355.9297 2443.1875,356.0859 2443.6563,356.3359 C2444.1406,356.6172 2444.3125,356.8359 2444.4063,357.2422 C2444.4688,357.6484 2444.5,357.7734 2444.6406,357.8984 C2444.7813,358.0391 2445.0156,358.1484 2445.2344,358.1484 C2445.5,358.1484 2445.7656,358.0078 2445.9375,357.7891 C2446.0469,357.6328 2446.0781,357.4453 2446.0781,357.0234 L2446.0781,355.6016 C2446.0781,355.1641 2446.0625,355.0391 2445.9688,354.8828 C2445.8125,354.6172 2445.5313,354.4766 2445.2344,354.4766 C2444.9375,354.4766 2444.7344,354.5703 2444.5156,354.8828 L2444.3438,354.8047 Z " fill="#000000"/><text fill="#000000" font-family="sans-serif" font-size="12" font-style="italic" lengthAdjust="spacing" textLength="47" x="2480.5" y="355.1387">&#171;static&#187;</text><text fill="#000000" font-family="sans-serif" font-size="14" lengthAdjust="spacing" textLength="96" x="2456" y="370.9639">GameFactory</text><line style="stroke:#181818;stroke-width:0.5;" x1="2428" x2="2554" y1="379.2656" y2="379.2656"/><line style="stroke:#181818;stroke-width:0.5;" x1="2428" x2="2554" y1="387.2656" y2="387.2656"/></g><!--class SingletonGameHandler--><g id="elem_SingletonGameHandler"><rect codeLine="8" fill="#F1F1F1" height="56.2656" id="SingletonGameHandler" rx="2.5" ry="2.5" style="stroke:#181818;stroke-width:0.5;" width="198" x="2194" y="339"/><ellipse cx="2209" cy="359.1328" fill="#ADD1B2" rx="11" ry="11" style="stroke:#181818;stroke-width:1.0;"/><path d="M2211.3438,354.8047 C2210.4063,354.3672 2209.8125,354.2266 2208.9375,354.2266 C2206.3125,354.2266 2204.3125,356.3047 2204.3125,359.0234 L2204.3125,360.1484 C2204.3125,362.7266 2206.4219,364.6172 2209.3125,364.6172 C2210.5313,364.6172 2211.6875,364.3203 2212.4375,363.7734 C2213.0156,363.3672 2213.3438,362.9141 2213.3438,362.5234 C2213.3438,362.0703 2212.9531,361.6797 2212.4844,361.6797 C2212.2656,361.6797 2212.0625,361.7578 2211.875,361.9453 C2211.4219,362.4297 2211.4219,362.4297 2211.2344,362.5234 C2210.8125,362.7891 2210.125,362.9141 2209.3594,362.9141 C2207.3125,362.9141 2206.0156,361.8203 2206.0156,360.1172 L2206.0156,359.0234 C2206.0156,357.2422 2207.2656,355.9297 2209,355.9297 C2209.5781,355.9297 2210.1875,356.0859 2210.6563,356.3359 C2211.1406,356.6172 2211.3125,356.8359 2211.4063,357.2422 C2211.4688,357.6484 2211.5,357.7734 2211.6406,357.8984 C2211.7813,358.0391 2212.0156,358.1484 2212.2344,358.1484 C2212.5,358.1484 2212.7656,358.0078 2212.9375,357.7891 C2213.0469,357.6328 2213.0781,357.4453 2213.0781,357.0234 L2213.0781,355.6016 C2213.0781,355.1641 2213.0625,355.0391 2212.9688,354.8828 C2212.8125,354.6172 2212.5313,354.4766 2212.2344,354.4766 C2211.9375,354.4766 2211.7344,354.5703 2211.5156,354.8828 L2211.3438,354.8047 Z " fill="#000000"/><text fill="#000000" font-family="sans-serif" font-size="12" font-style="italic" lengthAdjust="spacing" textLength="69" x="2271.5" y="355.1387">&#171;singleton&#187;</text><text fill="#000000" font-family="sans-serif" font-size="14" lengthAdjust="spacing" textLength="166" x="2223" y="370.9639">SingletonGameHandler</text><line style="stroke:#181818;stroke-width:0.5;" x1="2195" x2="2391" y1="379.2656" y2="379.2656"/><line style="stroke:#181818;stroke-width:0.5;" x1="2195" x2="2391" y1="387.2656" y2="387.2656"/></g><!--class EnumGemmes--><g id="elem_EnumGemmes"><rect codeLine="9" fill="#F1F1F1" height="56.2656" id="EnumGemmes" rx="2.5" ry="2.5" style="stroke:#181818;stroke-width:0.5;" width="136" x="2042" y="791"/><ellipse cx="2057" cy="811.1328" fill="#EB937F" rx="11" ry="11" style="stroke:#181818;stroke-width:1.0;"/><path d="M2055.7969,812.0078 L2057.25,812.0078 L2057.25,812.1172 C2057.25,812.5234 2057.2813,812.6797 2057.3594,812.8359 C2057.5156,813.0859 2057.7969,813.2422 2058.0938,813.2422 C2058.3438,813.2422 2058.6094,813.1016 2058.7656,812.8828 C2058.8906,812.7266 2058.9219,812.5703 2058.9219,812.1172 L2058.9219,810.1953 C2058.9219,810.0391 2058.9219,809.9922 2058.9063,809.8359 C2058.8438,809.3672 2058.5313,809.0547 2058.0781,809.0547 C2057.8281,809.0547 2057.5625,809.1953 2057.3906,809.4141 C2057.2813,809.5859 2057.25,809.7422 2057.25,810.1953 L2057.25,810.3203 L2055.7969,810.3203 L2055.7969,807.9141 L2059.7813,807.9141 L2059.7813,808.7734 C2059.7813,809.1797 2059.8125,809.3516 2059.8906,809.5078 C2060.0625,809.7578 2060.3438,809.9141 2060.625,809.9141 C2060.8906,809.9141 2061.1563,809.7734 2061.3281,809.5547 C2061.4375,809.3828 2061.4688,809.2422 2061.4688,808.7734 L2061.4688,806.2266 L2053.8438,806.2266 C2053.4063,806.2266 2053.2813,806.2422 2053.125,806.3359 C2052.875,806.4922 2052.7188,806.7891 2052.7188,807.0703 C2052.7188,807.3516 2052.8594,807.6016 2053.0781,807.7734 C2053.2344,807.8828 2053.4219,807.9141 2053.8438,807.9141 L2054.0938,807.9141 L2054.0938,814.4297 L2053.8438,814.4297 C2053.4375,814.4297 2053.2813,814.4453 2053.125,814.5547 C2052.875,814.7266 2052.7188,814.9922 2052.7188,815.2891 C2052.7188,815.5547 2052.8594,815.8047 2053.0781,815.9609 C2053.2188,816.0859 2053.4531,816.1328 2053.8438,816.1328 L2061.8438,816.1328 L2061.8438,813.5547 C2061.8438,813.1172 2061.8125,812.9766 2061.7344,812.8203 C2061.5625,812.5703 2061.2813,812.4141 2061,812.4141 C2060.7344,812.4141 2060.4688,812.5234 2060.2969,812.7734 C2060.1875,812.9297 2060.1563,813.0703 2060.1563,813.5547 L2060.1563,814.4297 L2055.7969,814.4297 L2055.7969,812.0078 Z " fill="#000000"/><text fill="#000000" font-family="sans-serif" font-size="12" font-style="italic" lengthAdjust="spacing" textLength="49" x="2098.5" y="807.1387">&#171;enum&#187;</text><text fill="#000000" font-family="sans-serif" font-size="14" lengthAdjust="spacing" textLength="104" x="2071" y="822.9639">EnumGemmes</text><line style="stroke:#181818;stroke-width:0.5;" x1="2043" x2="2177" y1="831.2656" y2="831.2656"/><line style="stroke:#181818;stroke-width:0.5;" x1="2043" x2="2177" y1="839.2656" y2="839.2656"/></g><!--class SingletonNobleHandler--><g id="elem_SingletonNobleHandler"><rect codeLine="10" fill="#F1F1F1" height="56.2656" id="SingletonNobleHandler" rx="2.5" ry="2.5" style="stroke:#181818;stroke-width:0.5;" width="198" x="2589" y="486"/><ellipse cx="2604" cy="506.1328" fill="#ADD1B2" rx="11" ry="11" style="stroke:#181818;stroke-width:1.0;"/><path d="M2606.3438,501.8047 C2605.4063,501.3672 2604.8125,501.2266 2603.9375,501.2266 C2601.3125,501.2266 2599.3125,503.3047 2599.3125,506.0234 L2599.3125,507.1484 C2599.3125,509.7266 2601.4219,511.6172 2604.3125,511.6172 C2605.5313,511.6172 2606.6875,511.3203 2607.4375,510.7734 C2608.0156,510.3672 2608.3438,509.9141 2608.3438,509.5234 C2608.3438,509.0703 2607.9531,508.6797 2607.4844,508.6797 C2607.2656,508.6797 2607.0625,508.7578 2606.875,508.9453 C2606.4219,509.4297 2606.4219,509.4297 2606.2344,509.5234 C2605.8125,509.7891 2605.125,509.9141 2604.3594,509.9141 C2602.3125,509.9141 2601.0156,508.8203 2601.0156,507.1172 L2601.0156,506.0234 C2601.0156,504.2422 2602.2656,502.9297 2604,502.9297 C2604.5781,502.9297 2605.1875,503.0859 2605.6563,503.3359 C2606.1406,503.6172 2606.3125,503.8359 2606.4063,504.2422 C2606.4688,504.6484 2606.5,504.7734 2606.6406,504.8984 C2606.7813,505.0391 2607.0156,505.1484 2607.2344,505.1484 C2607.5,505.1484 2607.7656,505.0078 2607.9375,504.7891 C2608.0469,504.6328 2608.0781,504.4453 2608.0781,504.0234 L2608.0781,502.6016 C2608.0781,502.1641 2608.0625,502.0391 2607.9688,501.8828 C2607.8125,501.6172 2607.5313,501.4766 2607.2344,501.4766 C2606.9375,501.4766 2606.7344,501.5703 2606.5156,501.8828 L2606.3438,501.8047 Z " fill="#000000"/><text fill="#000000" font-family="sans-serif" font-size="12" font-style="italic" lengthAdjust="spacing" textLength="69" x="2666.5" y="502.1387">&#171;singleton&#187;</text><text fill="#000000" font-family="sans-serif" font-size="14" lengthAdjust="spacing" textLength="166" x="2618" y="517.9639">SingletonNobleHandler</text><line style="stroke:#181818;stroke-width:0.5;" x1="2590" x2="2786" y1="526.2656" y2="526.2656"/><line style="stroke:#181818;stroke-width:0.5;" x1="2590" x2="2786" y1="534.2656" y2="534.2656"/></g><!--class Player--><g id="elem_Player"><rect codeLine="11" fill="#F1F1F1" height="48" id="Player" rx="2.5" ry="2.5" style="stroke:#181818;stroke-width:0.5;" width="76" x="1978" y="490"/><ellipse cx="1993" cy="506" fill="#ADD1B2" rx="11" ry="11" style="stroke:#181818;stroke-width:1.0;"/><path d="M1995.3438,501.6719 C1994.4063,501.2344 1993.8125,501.0938 1992.9375,501.0938 C1990.3125,501.0938 1988.3125,503.1719 1988.3125,505.8906 L1988.3125,507.0156 C1988.3125,509.5938 1990.4219,511.4844 1993.3125,511.4844 C1994.5313,511.4844 1995.6875,511.1875 1996.4375,510.6406 C1997.0156,510.2344 1997.3438,509.7813 1997.3438,509.3906 C1997.3438,508.9375 1996.9531,508.5469 1996.4844,508.5469 C1996.2656,508.5469 1996.0625,508.625 1995.875,508.8125 C1995.4219,509.2969 1995.4219,509.2969 1995.2344,509.3906 C1994.8125,509.6563 1994.125,509.7813 1993.3594,509.7813 C1991.3125,509.7813 1990.0156,508.6875 1990.0156,506.9844 L1990.0156,505.8906 C1990.0156,504.1094 1991.2656,502.7969 1993,502.7969 C1993.5781,502.7969 1994.1875,502.9531 1994.6563,503.2031 C1995.1406,503.4844 1995.3125,503.7031 1995.4063,504.1094 C1995.4688,504.5156 1995.5,504.6406 1995.6406,504.7656 C1995.7813,504.9063 1996.0156,505.0156 1996.2344,505.0156 C1996.5,505.0156 1996.7656,504.875 1996.9375,504.6563 C1997.0469,504.5 1997.0781,504.3125 1997.0781,503.8906 L1997.0781,502.4688 C1997.0781,502.0313 1997.0625,501.9063 1996.9688,501.75 C1996.8125,501.4844 1996.5313,501.3438 1996.2344,501.3438 C1995.9375,501.3438 1995.7344,501.4375 1995.5156,501.75 L1995.3438,501.6719 Z " fill="#000000"/><text fill="#000000" font-family="sans-serif" font-size="14" lengthAdjust="spacing" textLength="44" x="2007" y="510.8467">Player</text><line style="stroke:#181818;stroke-width:0.5;" x1="1979" x2="2053" y1="522" y2="522"/><line style="stroke:#181818;stroke-width:0.5;" x1="1979" x2="2053" y1="530" y2="530"/></g><!--class AI--><g id="elem_AI"><rect codeLine="12" fill="#F1F1F1" height="48" id="AI" rx="2.5" ry="2.5" style="stroke:#181818;stroke-width:0.5;" width="46" x="2041" y="664"/><ellipse cx="2056" cy="680" fill="#ADD1B2" rx="11" ry="11" style="stroke:#181818;stroke-width:1.0;"/><path d="M2058.3438,675.6719 C2057.4063,675.2344 2056.8125,675.0938 2055.9375,675.0938 C2053.3125,675.0938 2051.3125,677.1719 2051.3125,679.8906 L2051.3125,681.0156 C2051.3125,683.5938 2053.4219,685.4844 2056.3125,685.4844 C2057.5313,685.4844 2058.6875,685.1875 2059.4375,684.6406 C2060.0156,684.2344 2060.3438,683.7813 2060.3438,683.3906 C2060.3438,682.9375 2059.9531,682.5469 2059.4844,682.5469 C2059.2656,682.5469 2059.0625,682.625 2058.875,682.8125 C2058.4219,683.2969 2058.4219,683.2969 2058.2344,683.3906 C2057.8125,683.6563 2057.125,683.7813 2056.3594,683.7813 C2054.3125,683.7813 2053.0156,682.6875 2053.0156,680.9844 L2053.0156,679.8906 C2053.0156,678.1094 2054.2656,676.7969 2056,676.7969 C2056.5781,676.7969 2057.1875,676.9531 2057.6563,677.2031 C2058.1406,677.4844 2058.3125,677.7031 2058.4063,678.1094 C2058.4688,678.5156 2058.5,678.6406 2058.6406,678.7656 C2058.7813,678.9063 2059.0156,679.0156 2059.2344,679.0156 C2059.5,679.0156 2059.7656,678.875 2059.9375,678.6563 C2060.0469,678.5 2060.0781,678.3125 2060.0781,677.8906 L2060.0781,676.4688 C2060.0781,676.0313 2060.0625,675.9063 2059.9688,675.75 C2059.8125,675.4844 2059.5313,675.3438 2059.2344,675.3438 C2058.9375,675.3438 2058.7344,675.4375 2058.5156,675.75 L2058.3438,675.6719 Z " fill="#000000"/><text fill="#000000" font-family="sans-serif" font-size="14" lengthAdjust="spacing" textLength="14" x="2070" y="684.8467">AI</text><line style="stroke:#181818;stroke-width:0.5;" x1="2042" x2="2086" y1="696" y2="696"/><line style="stroke:#181818;stroke-width:0.5;" x1="2042" x2="2086" y1="704" y2="704"/></g><!--class SingletonPrivilegeHandler--><g id="elem_SingletonPrivilegeHandler"><rect codeLine="13" fill="#F1F1F1" height="56.2656" id="SingletonPrivilegeHandler" rx="2.5" ry="2.5" style="stroke:#181818;stroke-width:0.5;" width="218" x="1941" y="339"/><ellipse cx="1956" cy="359.1328" fill="#ADD1B2" rx="11" ry="11" style="stroke:#181818;stroke-width:1.0;"/><path d="M1958.3438,354.8047 C1957.4063,354.3672 1956.8125,354.2266 1955.9375,354.2266 C1953.3125,354.2266 1951.3125,356.3047 1951.3125,359.0234 L1951.3125,360.1484 C1951.3125,362.7266 1953.4219,364.6172 1956.3125,364.6172 C1957.5313,364.6172 1958.6875,364.3203 1959.4375,363.7734 C1960.0156,363.3672 1960.3438,362.9141 1960.3438,362.5234 C1960.3438,362.0703 1959.9531,361.6797 1959.4844,361.6797 C1959.2656,361.6797 1959.0625,361.7578 1958.875,361.9453 C1958.4219,362.4297 1958.4219,362.4297 1958.2344,362.5234 C1957.8125,362.7891 1957.125,362.9141 1956.3594,362.9141 C1954.3125,362.9141 1953.0156,361.8203 1953.0156,360.1172 L1953.0156,359.0234 C1953.0156,357.2422 1954.2656,355.9297 1956,355.9297 C1956.5781,355.9297 1957.1875,356.0859 1957.6563,356.3359 C1958.1406,356.6172 1958.3125,356.8359 1958.4063,357.2422 C1958.4688,357.6484 1958.5,357.7734 1958.6406,357.8984 C1958.7813,358.0391 1959.0156,358.1484 1959.2344,358.1484 C1959.5,358.1484 1959.7656,358.0078 1959.9375,357.7891 C1960.0469,357.6328 1960.0781,357.4453 1960.0781,357.0234 L1960.0781,355.6016 C1960.0781,355.1641 1960.0625,355.0391 1959.9688,354.8828 C1959.8125,354.6172 1959.5313,354.4766 1959.2344,354.4766 C1958.9375,354.4766 1958.7344,354.5703 1958.5156,354.8828 L1958.3438,354.8047 Z " fill="#000000"/><text fill="#000000" font-family="sans-serif" font-size="12" font-style="italic" lengthAdjust="spacing" textLength="69" x="2028.5" y="355.1387">&#171;singleton&#187;</text><text fill="#000000" font-family="sans-serif" font-size="14" lengthAdjust="spacing" textLength="186" x="1970" y="370.9639">SingletonPrivilegeHandler</text><line style="stroke:#181818;stroke-width:0.5;" x1="1942" x2="2158" y1="379.2656" y2="379.2656"/><line style="stroke:#181818;stroke-width:0.5;" x1="1942" x2="2158" y1="387.2656" y2="387.2656"/></g><!--class Image--><g id="elem_Image"><rect codeLine="17" fill="#F1F1F1" height="48" id="Image" rx="2.5" ry="2.5" style="stroke:#181818;stroke-width:0.5;" width="76" x="1999" y="45"/><ellipse cx="2014" cy="61" fill="#ADD1B2" rx="11" ry="11" style="stroke:#181818;stroke-width:1.0;"/><path d="M2016.3438,56.6719 C2015.4063,56.2344 2014.8125,56.0938 2013.9375,56.0938 C2011.3125,56.0938 2009.3125,58.1719 2009.3125,60.8906 L2009.3125,62.0156 C2009.3125,64.5938 2011.4219,66.4844 2014.3125,66.4844 C2015.5313,66.4844 2016.6875,66.1875 2017.4375,65.6406 C2018.0156,65.2344 2018.3438,64.7813 2018.3438,64.3906 C2018.3438,63.9375 2017.9531,63.5469 2017.4844,63.5469 C2017.2656,63.5469 2017.0625,63.625 2016.875,63.8125 C2016.4219,64.2969 2016.4219,64.2969 2016.2344,64.3906 C2015.8125,64.6563 2015.125,64.7813 2014.3594,64.7813 C2012.3125,64.7813 2011.0156,63.6875 2011.0156,61.9844 L2011.0156,60.8906 C2011.0156,59.1094 2012.2656,57.7969 2014,57.7969 C2014.5781,57.7969 2015.1875,57.9531 2015.6563,58.2031 C2016.1406,58.4844 2016.3125,58.7031 2016.4063,59.1094 C2016.4688,59.5156 2016.5,59.6406 2016.6406,59.7656 C2016.7813,59.9063 2017.0156,60.0156 2017.2344,60.0156 C2017.5,60.0156 2017.7656,59.875 2017.9375,59.6563 C2018.0469,59.5 2018.0781,59.3125 2018.0781,58.8906 L2018.0781,57.4688 C2018.0781,57.0313 2018.0625,56.9063 2017.9688,56.75 C2017.8125,56.4844 2017.5313,56.3438 2017.2344,56.3438 C2016.9375,56.3438 2016.7344,56.4375 2016.5156,56.75 L2016.3438,56.6719 Z " fill="#000000"/><text fill="#000000" font-family="sans-serif" font-size="14" lengthAdjust="spacing" textLength="44" x="2028" y="65.8467">Image</text><line style="stroke:#181818;stroke-width:0.5;" x1="2000" x2="2074" y1="77" y2="77"/><line style="stroke:#181818;stroke-width:0.5;" x1="2000" x2="2074" y1="85" y2="85"/></g><!--class Rules--><g id="elem_Rules"><rect codeLine="18" fill="#F1F1F1" height="56.2656" id="Rules" rx="2.5" ry="2.5" style="stroke:#181818;stroke-width:0.5;" width="75" x="2110.5" y="41"/><ellipse cx="2125.5" cy="61.1328" fill="#ADD1B2" rx="11" ry="11" style="stroke:#181818;stroke-width:1.0;"/><path d="M2127.8438,56.8047 C2126.9063,56.3672 2126.3125,56.2266 2125.4375,56.2266 C2122.8125,56.2266 2120.8125,58.3047 2120.8125,61.0234 L2120.8125,62.1484 C2120.8125,64.7266 2122.9219,66.6172 2125.8125,66.6172 C2127.0313,66.6172 2128.1875,66.3203 2128.9375,65.7734 C2129.5156,65.3672 2129.8438,64.9141 2129.8438,64.5234 C2129.8438,64.0703 2129.4531,63.6797 2128.9844,63.6797 C2128.7656,63.6797 2128.5625,63.7578 2128.375,63.9453 C2127.9219,64.4297 2127.9219,64.4297 2127.7344,64.5234 C2127.3125,64.7891 2126.625,64.9141 2125.8594,64.9141 C2123.8125,64.9141 2122.5156,63.8203 2122.5156,62.1172 L2122.5156,61.0234 C2122.5156,59.2422 2123.7656,57.9297 2125.5,57.9297 C2126.0781,57.9297 2126.6875,58.0859 2127.1563,58.3359 C2127.6406,58.6172 2127.8125,58.8359 2127.9063,59.2422 C2127.9688,59.6484 2128,59.7734 2128.1406,59.8984 C2128.2813,60.0391 2128.5156,60.1484 2128.7344,60.1484 C2129,60.1484 2129.2656,60.0078 2129.4375,59.7891 C2129.5469,59.6328 2129.5781,59.4453 2129.5781,59.0234 L2129.5781,57.6016 C2129.5781,57.1641 2129.5625,57.0391 2129.4688,56.8828 C2129.3125,56.6172 2129.0313,56.4766 2128.7344,56.4766 C2128.4375,56.4766 2128.2344,56.5703 2128.0156,56.8828 L2127.8438,56.8047 Z " fill="#000000"/><text fill="#000000" font-family="sans-serif" font-size="12" font-style="italic" lengthAdjust="spacing" textLength="47" x="2137.5" y="57.1387">&#171;static&#187;</text><text fill="#000000" font-family="sans-serif" font-size="14" lengthAdjust="spacing" textLength="38" x="2142" y="72.9639">Rules</text><line style="stroke:#181818;stroke-width:0.5;" x1="2111.5" x2="2184.5" y1="81.2656" y2="81.2656"/><line style="stroke:#181818;stroke-width:0.5;" x1="2111.5" x2="2184.5" y1="89.2656" y2="89.2656"/></g><!--class XmlReader--><g id="elem_XmlReader"><rect codeLine="19" fill="#F1F1F1" height="56.2656" id="XmlReader" rx="2.5" ry="2.5" style="stroke:#181818;stroke-width:0.5;" width="111" x="2220.5" y="41"/><ellipse cx="2235.5" cy="61.1328" fill="#ADD1B2" rx="11" ry="11" style="stroke:#181818;stroke-width:1.0;"/><path d="M2237.8438,56.8047 C2236.9063,56.3672 2236.3125,56.2266 2235.4375,56.2266 C2232.8125,56.2266 2230.8125,58.3047 2230.8125,61.0234 L2230.8125,62.1484 C2230.8125,64.7266 2232.9219,66.6172 2235.8125,66.6172 C2237.0313,66.6172 2238.1875,66.3203 2238.9375,65.7734 C2239.5156,65.3672 2239.8438,64.9141 2239.8438,64.5234 C2239.8438,64.0703 2239.4531,63.6797 2238.9844,63.6797 C2238.7656,63.6797 2238.5625,63.7578 2238.375,63.9453 C2237.9219,64.4297 2237.9219,64.4297 2237.7344,64.5234 C2237.3125,64.7891 2236.625,64.9141 2235.8594,64.9141 C2233.8125,64.9141 2232.5156,63.8203 2232.5156,62.1172 L2232.5156,61.0234 C2232.5156,59.2422 2233.7656,57.9297 2235.5,57.9297 C2236.0781,57.9297 2236.6875,58.0859 2237.1563,58.3359 C2237.6406,58.6172 2237.8125,58.8359 2237.9063,59.2422 C2237.9688,59.6484 2238,59.7734 2238.1406,59.8984 C2238.2813,60.0391 2238.5156,60.1484 2238.7344,60.1484 C2239,60.1484 2239.2656,60.0078 2239.4375,59.7891 C2239.5469,59.6328 2239.5781,59.4453 2239.5781,59.0234 L2239.5781,57.6016 C2239.5781,57.1641 2239.5625,57.0391 2239.4688,56.8828 C2239.3125,56.6172 2239.0313,56.4766 2238.7344,56.4766 C2238.4375,56.4766 2238.2344,56.5703 2238.0156,56.8828 L2237.8438,56.8047 Z " fill="#000000"/><text fill="#000000" font-family="sans-serif" font-size="12" font-style="italic" lengthAdjust="spacing" textLength="47" x="2265.5" y="57.1387">&#171;static&#187;</text><text fill="#000000" font-family="sans-serif" font-size="14" lengthAdjust="spacing" textLength="79" x="2249.5" y="72.9639">XmlReader</text><line style="stroke:#181818;stroke-width:0.5;" x1="2221.5" x2="2330.5" y1="81.2656" y2="81.2656"/><line style="stroke:#181818;stroke-width:0.5;" x1="2221.5" x2="2330.5" y1="89.2656" y2="89.2656"/></g><!--class BackgroundWidgetUI--><g id="elem_BackgroundWidgetUI"><rect codeLine="23" fill="#F1F1F1" height="48" id="BackgroundWidgetUI" rx="2.5" ry="2.5" style="stroke:#181818;stroke-width:0.5;" width="182" x="1674" y="490"/><ellipse cx="1689" cy="506" fill="#ADD1B2" rx="11" ry="11" style="stroke:#181818;stroke-width:1.0;"/><path d="M1691.3438,501.6719 C1690.4063,501.2344 1689.8125,501.0938 1688.9375,501.0938 C1686.3125,501.0938 1684.3125,503.1719 1684.3125,505.8906 L1684.3125,507.0156 C1684.3125,509.5938 1686.4219,511.4844 1689.3125,511.4844 C1690.5313,511.4844 1691.6875,511.1875 1692.4375,510.6406 C1693.0156,510.2344 1693.3438,509.7813 1693.3438,509.3906 C1693.3438,508.9375 1692.9531,508.5469 1692.4844,508.5469 C1692.2656,508.5469 1692.0625,508.625 1691.875,508.8125 C1691.4219,509.2969 1691.4219,509.2969 1691.2344,509.3906 C1690.8125,509.6563 1690.125,509.7813 1689.3594,509.7813 C1687.3125,509.7813 1686.0156,508.6875 1686.0156,506.9844 L1686.0156,505.8906 C1686.0156,504.1094 1687.2656,502.7969 1689,502.7969 C1689.5781,502.7969 1690.1875,502.9531 1690.6563,503.2031 C1691.1406,503.4844 1691.3125,503.7031 1691.4063,504.1094 C1691.4688,504.5156 1691.5,504.6406 1691.6406,504.7656 C1691.7813,504.9063 1692.0156,505.0156 1692.2344,505.0156 C1692.5,505.0156 1692.7656,504.875 1692.9375,504.6563 C1693.0469,504.5 1693.0781,504.3125 1693.0781,503.8906 L1693.0781,502.4688 C1693.0781,502.0313 1693.0625,501.9063 1692.9688,501.75 C1692.8125,501.4844 1692.5313,501.3438 1692.2344,501.3438 C1691.9375,501.3438 1691.7344,501.4375 1691.5156,501.75 L1691.3438,501.6719 Z " fill="#000000"/><text fill="#000000" font-family="sans-serif" font-size="14" lengthAdjust="spacing" textLength="150" x="1703" y="510.8467">BackgroundWidgetUI</text><line style="stroke:#181818;stroke-width:0.5;" x1="1675" x2="1855" y1="522" y2="522"/><line style="stroke:#181818;stroke-width:0.5;" x1="1675" x2="1855" y1="530" y2="530"/></g><!--class CardUI--><g id="elem_CardUI"><rect codeLine="24" fill="#F1F1F1" height="48" id="CardUI" rx="2.5" ry="2.5" style="stroke:#181818;stroke-width:0.5;" width="78" x="1264" y="490"/><ellipse cx="1279" cy="506" fill="#ADD1B2" rx="11" ry="11" style="stroke:#181818;stroke-width:1.0;"/><path d="M1281.3438,501.6719 C1280.4063,501.2344 1279.8125,501.0938 1278.9375,501.0938 C1276.3125,501.0938 1274.3125,503.1719 1274.3125,505.8906 L1274.3125,507.0156 C1274.3125,509.5938 1276.4219,511.4844 1279.3125,511.4844 C1280.5313,511.4844 1281.6875,511.1875 1282.4375,510.6406 C1283.0156,510.2344 1283.3438,509.7813 1283.3438,509.3906 C1283.3438,508.9375 1282.9531,508.5469 1282.4844,508.5469 C1282.2656,508.5469 1282.0625,508.625 1281.875,508.8125 C1281.4219,509.2969 1281.4219,509.2969 1281.2344,509.3906 C1280.8125,509.6563 1280.125,509.7813 1279.3594,509.7813 C1277.3125,509.7813 1276.0156,508.6875 1276.0156,506.9844 L1276.0156,505.8906 C1276.0156,504.1094 1277.2656,502.7969 1279,502.7969 C1279.5781,502.7969 1280.1875,502.9531 1280.6563,503.2031 C1281.1406,503.4844 1281.3125,503.7031 1281.4063,504.1094 C1281.4688,504.5156 1281.5,504.6406 1281.6406,504.7656 C1281.7813,504.9063 1282.0156,505.0156 1282.2344,505.0156 C1282.5,505.0156 1282.7656,504.875 1282.9375,504.6563 C1283.0469,504.5 1283.0781,504.3125 1283.0781,503.8906 L1283.0781,502.4688 C1283.0781,502.0313 1283.0625,501.9063 1282.9688,501.75 C1282.8125,501.4844 1282.5313,501.3438 1282.2344,501.3438 C1281.9375,501.3438 1281.7344,501.4375 1281.5156,501.75 L1281.3438,501.6719 Z " fill="#000000"/><text fill="#000000" font-family="sans-serif" font-size="14" lengthAdjust="spacing" textLength="46" x="1293" y="510.8467">CardUI</text><line style="stroke:#181818;stroke-width:0.5;" x1="1265" x2="1341" y1="522" y2="522"/><line style="stroke:#181818;stroke-width:0.5;" x1="1265" x2="1341" y1="530" y2="530"/></g><!--class GemmesUI--><g id="elem_GemmesUI"><rect codeLine="25" fill="#F1F1F1" height="48" id="GemmesUI" rx="2.5" ry="2.5" style="stroke:#181818;stroke-width:0.5;" width="109" x="1087.5" y="664"/><ellipse cx="1102.5" cy="680" fill="#ADD1B2" rx="11" ry="11" style="stroke:#181818;stroke-width:1.0;"/><path d="M1104.8438,675.6719 C1103.9063,675.2344 1103.3125,675.0938 1102.4375,675.0938 C1099.8125,675.0938 1097.8125,677.1719 1097.8125,679.8906 L1097.8125,681.0156 C1097.8125,683.5938 1099.9219,685.4844 1102.8125,685.4844 C1104.0313,685.4844 1105.1875,685.1875 1105.9375,684.6406 C1106.5156,684.2344 1106.8438,683.7813 1106.8438,683.3906 C1106.8438,682.9375 1106.4531,682.5469 1105.9844,682.5469 C1105.7656,682.5469 1105.5625,682.625 1105.375,682.8125 C1104.9219,683.2969 1104.9219,683.2969 1104.7344,683.3906 C1104.3125,683.6563 1103.625,683.7813 1102.8594,683.7813 C1100.8125,683.7813 1099.5156,682.6875 1099.5156,680.9844 L1099.5156,679.8906 C1099.5156,678.1094 1100.7656,676.7969 1102.5,676.7969 C1103.0781,676.7969 1103.6875,676.9531 1104.1563,677.2031 C1104.6406,677.4844 1104.8125,677.7031 1104.9063,678.1094 C1104.9688,678.5156 1105,678.6406 1105.1406,678.7656 C1105.2813,678.9063 1105.5156,679.0156 1105.7344,679.0156 C1106,679.0156 1106.2656,678.875 1106.4375,678.6563 C1106.5469,678.5 1106.5781,678.3125 1106.5781,677.8906 L1106.5781,676.4688 C1106.5781,676.0313 1106.5625,675.9063 1106.4688,675.75 C1106.3125,675.4844 1106.0313,675.3438 1105.7344,675.3438 C1105.4375,675.3438 1105.2344,675.4375 1105.0156,675.75 L1104.8438,675.6719 Z " fill="#000000"/><text fill="#000000" font-family="sans-serif" font-size="14" lengthAdjust="spacing" textLength="77" x="1116.5" y="684.8467">GemmesUI</text><line style="stroke:#181818;stroke-width:0.5;" x1="1088.5" x2="1195.5" y1="696" y2="696"/><line style="stroke:#181818;stroke-width:0.5;" x1="1088.5" x2="1195.5" y1="704" y2="704"/></g><!--class InformationMessageUI--><g id="elem_InformationMessageUI"><rect codeLine="26" fill="#F1F1F1" height="48" id="InformationMessageUI" rx="2.5" ry="2.5" style="stroke:#181818;stroke-width:0.5;" width="191" x="38.5" y="343"/><ellipse cx="53.5" cy="359" fill="#ADD1B2" rx="11" ry="11" style="stroke:#181818;stroke-width:1.0;"/><path d="M55.8438,354.6719 C54.9063,354.2344 54.3125,354.0938 53.4375,354.0938 C50.8125,354.0938 48.8125,356.1719 48.8125,358.8906 L48.8125,360.0156 C48.8125,362.5938 50.9219,364.4844 53.8125,364.4844 C55.0313,364.4844 56.1875,364.1875 56.9375,363.6406 C57.5156,363.2344 57.8438,362.7813 57.8438,362.3906 C57.8438,361.9375 57.4531,361.5469 56.9844,361.5469 C56.7656,361.5469 56.5625,361.625 56.375,361.8125 C55.9219,362.2969 55.9219,362.2969 55.7344,362.3906 C55.3125,362.6563 54.625,362.7813 53.8594,362.7813 C51.8125,362.7813 50.5156,361.6875 50.5156,359.9844 L50.5156,358.8906 C50.5156,357.1094 51.7656,355.7969 53.5,355.7969 C54.0781,355.7969 54.6875,355.9531 55.1563,356.2031 C55.6406,356.4844 55.8125,356.7031 55.9063,357.1094 C55.9688,357.5156 56,357.6406 56.1406,357.7656 C56.2813,357.9063 56.5156,358.0156 56.7344,358.0156 C57,358.0156 57.2656,357.875 57.4375,357.6563 C57.5469,357.5 57.5781,357.3125 57.5781,356.8906 L57.5781,355.4688 C57.5781,355.0313 57.5625,354.9063 57.4688,354.75 C57.3125,354.4844 57.0313,354.3438 56.7344,354.3438 C56.4375,354.3438 56.2344,354.4375 56.0156,354.75 L55.8438,354.6719 Z " fill="#000000"/><text fill="#000000" font-family="sans-serif" font-size="14" lengthAdjust="spacing" textLength="159" x="67.5" y="363.8467">InformationMessageUI</text><line style="stroke:#181818;stroke-width:0.5;" x1="39.5" x2="228.5" y1="375" y2="375"/><line style="stroke:#181818;stroke-width:0.5;" x1="39.5" x2="228.5" y1="383" y2="383"/></g><!--class PrivilegeBoardUI--><g id="elem_PrivilegeBoardUI"><rect codeLine="27" fill="#F1F1F1" height="48" id="PrivilegeBoardUI" rx="2.5" ry="2.5" style="stroke:#181818;stroke-width:0.5;" width="149" x="264.5" y="343"/><ellipse cx="279.5" cy="359" fill="#ADD1B2" rx="11" ry="11" style="stroke:#181818;stroke-width:1.0;"/><path d="M281.8438,354.6719 C280.9063,354.2344 280.3125,354.0938 279.4375,354.0938 C276.8125,354.0938 274.8125,356.1719 274.8125,358.8906 L274.8125,360.0156 C274.8125,362.5938 276.9219,364.4844 279.8125,364.4844 C281.0313,364.4844 282.1875,364.1875 282.9375,363.6406 C283.5156,363.2344 283.8438,362.7813 283.8438,362.3906 C283.8438,361.9375 283.4531,361.5469 282.9844,361.5469 C282.7656,361.5469 282.5625,361.625 282.375,361.8125 C281.9219,362.2969 281.9219,362.2969 281.7344,362.3906 C281.3125,362.6563 280.625,362.7813 279.8594,362.7813 C277.8125,362.7813 276.5156,361.6875 276.5156,359.9844 L276.5156,358.8906 C276.5156,357.1094 277.7656,355.7969 279.5,355.7969 C280.0781,355.7969 280.6875,355.9531 281.1563,356.2031 C281.6406,356.4844 281.8125,356.7031 281.9063,357.1094 C281.9688,357.5156 282,357.6406 282.1406,357.7656 C282.2813,357.9063 282.5156,358.0156 282.7344,358.0156 C283,358.0156 283.2656,357.875 283.4375,357.6563 C283.5469,357.5 283.5781,357.3125 283.5781,356.8906 L283.5781,355.4688 C283.5781,355.0313 283.5625,354.9063 283.4688,354.75 C283.3125,354.4844 283.0313,354.3438 282.7344,354.3438 C282.4375,354.3438 282.2344,354.4375 282.0156,354.75 L281.8438,354.6719 Z " fill="#000000"/><text fill="#000000" font-family="sans-serif" font-size="14" lengthAdjust="spacing" textLength="117" x="293.5" y="363.8467">PrivilegeBoardUI</text><line style="stroke:#181818;stroke-width:0.5;" x1="265.5" x2="412.5" y1="375" y2="375"/><line style="stroke:#181818;stroke-width:0.5;" x1="265.5" x2="412.5" y1="383" y2="383"/></g><!--class PrivilegeUI--><g id="elem_PrivilegeUI"><rect codeLine="28" fill="#F1F1F1" height="48" id="PrivilegeUI" rx="2.5" ry="2.5" style="stroke:#181818;stroke-width:0.5;" width="107" x="285.5" y="490"/><ellipse cx="300.5" cy="506" fill="#ADD1B2" rx="11" ry="11" style="stroke:#181818;stroke-width:1.0;"/><path d="M302.8438,501.6719 C301.9063,501.2344 301.3125,501.0938 300.4375,501.0938 C297.8125,501.0938 295.8125,503.1719 295.8125,505.8906 L295.8125,507.0156 C295.8125,509.5938 297.9219,511.4844 300.8125,511.4844 C302.0313,511.4844 303.1875,511.1875 303.9375,510.6406 C304.5156,510.2344 304.8438,509.7813 304.8438,509.3906 C304.8438,508.9375 304.4531,508.5469 303.9844,508.5469 C303.7656,508.5469 303.5625,508.625 303.375,508.8125 C302.9219,509.2969 302.9219,509.2969 302.7344,509.3906 C302.3125,509.6563 301.625,509.7813 300.8594,509.7813 C298.8125,509.7813 297.5156,508.6875 297.5156,506.9844 L297.5156,505.8906 C297.5156,504.1094 298.7656,502.7969 300.5,502.7969 C301.0781,502.7969 301.6875,502.9531 302.1563,503.2031 C302.6406,503.4844 302.8125,503.7031 302.9063,504.1094 C302.9688,504.5156 303,504.6406 303.1406,504.7656 C303.2813,504.9063 303.5156,505.0156 303.7344,505.0156 C304,505.0156 304.2656,504.875 304.4375,504.6563 C304.5469,504.5 304.5781,504.3125 304.5781,503.8906 L304.5781,502.4688 C304.5781,502.0313 304.5625,501.9063 304.4688,501.75 C304.3125,501.4844 304.0313,501.3438 303.7344,501.3438 C303.4375,501.3438 303.2344,501.4375 303.0156,501.75 L302.8438,501.6719 Z " fill="#000000"/><text fill="#000000" font-family="sans-serif" font-size="14" lengthAdjust="spacing" textLength="75" x="314.5" y="510.8467">PrivilegeUI</text><line style="stroke:#181818;stroke-width:0.5;" x1="286.5" x2="391.5" y1="522" y2="522"/><line style="stroke:#181818;stroke-width:0.5;" x1="286.5" x2="391.5" y1="530" y2="530"/></g><!--class SingletonSplendorDuel--><g id="elem_SingletonSplendorDuel"><rect codeLine="29" fill="#F1F1F1" height="48" id="SingletonSplendorDuel" rx="2.5" ry="2.5" style="stroke:#181818;stroke-width:0.5;" width="198" x="293" y="197"/><ellipse cx="308" cy="213" fill="#ADD1B2" rx="11" ry="11" style="stroke:#181818;stroke-width:1.0;"/><path d="M310.3438,208.6719 C309.4063,208.2344 308.8125,208.0938 307.9375,208.0938 C305.3125,208.0938 303.3125,210.1719 303.3125,212.8906 L303.3125,214.0156 C303.3125,216.5938 305.4219,218.4844 308.3125,218.4844 C309.5313,218.4844 310.6875,218.1875 311.4375,217.6406 C312.0156,217.2344 312.3438,216.7813 312.3438,216.3906 C312.3438,215.9375 311.9531,215.5469 311.4844,215.5469 C311.2656,215.5469 311.0625,215.625 310.875,215.8125 C310.4219,216.2969 310.4219,216.2969 310.2344,216.3906 C309.8125,216.6563 309.125,216.7813 308.3594,216.7813 C306.3125,216.7813 305.0156,215.6875 305.0156,213.9844 L305.0156,212.8906 C305.0156,211.1094 306.2656,209.7969 308,209.7969 C308.5781,209.7969 309.1875,209.9531 309.6563,210.2031 C310.1406,210.4844 310.3125,210.7031 310.4063,211.1094 C310.4688,211.5156 310.5,211.6406 310.6406,211.7656 C310.7813,211.9063 311.0156,212.0156 311.2344,212.0156 C311.5,212.0156 311.7656,211.875 311.9375,211.6563 C312.0469,211.5 312.0781,211.3125 312.0781,210.8906 L312.0781,209.4688 C312.0781,209.0313 312.0625,208.9063 311.9688,208.75 C311.8125,208.4844 311.5313,208.3438 311.2344,208.3438 C310.9375,208.3438 310.7344,208.4375 310.5156,208.75 L310.3438,208.6719 Z " fill="#000000"/><text fill="#000000" font-family="sans-serif" font-size="14" lengthAdjust="spacing" textLength="166" x="322" y="217.8467">SingletonSplendorDuel</text><line style="stroke:#181818;stroke-width:0.5;" x1="294" x2="490" y1="229" y2="229"/><line style="stroke:#181818;stroke-width:0.5;" x1="294" x2="490" y1="237" y2="237"/></g><!--class BoardCard--><g id="elem_BoardCard"><rect codeLine="32" fill="#F1F1F1" height="48" id="BoardCard" rx="2.5" ry="2.5" style="stroke:#181818;stroke-width:0.5;" width="107" x="862.5" y="343"/><ellipse cx="877.5" cy="359" fill="#ADD1B2" rx="11" ry="11" style="stroke:#181818;stroke-width:1.0;"/><path d="M879.8438,354.6719 C878.9063,354.2344 878.3125,354.0938 877.4375,354.0938 C874.8125,354.0938 872.8125,356.1719 872.8125,358.8906 L872.8125,360.0156 C872.8125,362.5938 874.9219,364.4844 877.8125,364.4844 C879.0313,364.4844 880.1875,364.1875 880.9375,363.6406 C881.5156,363.2344 881.8438,362.7813 881.8438,362.3906 C881.8438,361.9375 881.4531,361.5469 880.9844,361.5469 C880.7656,361.5469 880.5625,361.625 880.375,361.8125 C879.9219,362.2969 879.9219,362.2969 879.7344,362.3906 C879.3125,362.6563 878.625,362.7813 877.8594,362.7813 C875.8125,362.7813 874.5156,361.6875 874.5156,359.9844 L874.5156,358.8906 C874.5156,357.1094 875.7656,355.7969 877.5,355.7969 C878.0781,355.7969 878.6875,355.9531 879.1563,356.2031 C879.6406,356.4844 879.8125,356.7031 879.9063,357.1094 C879.9688,357.5156 880,357.6406 880.1406,357.7656 C880.2813,357.9063 880.5156,358.0156 880.7344,358.0156 C881,358.0156 881.2656,357.875 881.4375,357.6563 C881.5469,357.5 881.5781,357.3125 881.5781,356.8906 L881.5781,355.4688 C881.5781,355.0313 881.5625,354.9063 881.4688,354.75 C881.3125,354.4844 881.0313,354.3438 880.7344,354.3438 C880.4375,354.3438 880.2344,354.4375 880.0156,354.75 L879.8438,354.6719 Z " fill="#000000"/><text fill="#000000" font-family="sans-serif" font-size="14" lengthAdjust="spacing" textLength="75" x="891.5" y="363.8467">BoardCard</text><line style="stroke:#181818;stroke-width:0.5;" x1="863.5" x2="968.5" y1="375" y2="375"/><line style="stroke:#181818;stroke-width:0.5;" x1="863.5" x2="968.5" y1="383" y2="383"/></g><!--class BoardUI--><g id="elem_BoardUI"><rect codeLine="33" fill="#F1F1F1" height="48" id="BoardUI" rx="2.5" ry="2.5" style="stroke:#181818;stroke-width:0.5;" width="87" x="498.5" y="490"/><ellipse cx="513.5" cy="506" fill="#ADD1B2" rx="11" ry="11" style="stroke:#181818;stroke-width:1.0;"/><path d="M515.8438,501.6719 C514.9063,501.2344 514.3125,501.0938 513.4375,501.0938 C510.8125,501.0938 508.8125,503.1719 508.8125,505.8906 L508.8125,507.0156 C508.8125,509.5938 510.9219,511.4844 513.8125,511.4844 C515.0313,511.4844 516.1875,511.1875 516.9375,510.6406 C517.5156,510.2344 517.8438,509.7813 517.8438,509.3906 C517.8438,508.9375 517.4531,508.5469 516.9844,508.5469 C516.7656,508.5469 516.5625,508.625 516.375,508.8125 C515.9219,509.2969 515.9219,509.2969 515.7344,509.3906 C515.3125,509.6563 514.625,509.7813 513.8594,509.7813 C511.8125,509.7813 510.5156,508.6875 510.5156,506.9844 L510.5156,505.8906 C510.5156,504.1094 511.7656,502.7969 513.5,502.7969 C514.0781,502.7969 514.6875,502.9531 515.1563,503.2031 C515.6406,503.4844 515.8125,503.7031 515.9063,504.1094 C515.9688,504.5156 516,504.6406 516.1406,504.7656 C516.2813,504.9063 516.5156,505.0156 516.7344,505.0156 C517,505.0156 517.2656,504.875 517.4375,504.6563 C517.5469,504.5 517.5781,504.3125 517.5781,503.8906 L517.5781,502.4688 C517.5781,502.0313 517.5625,501.9063 517.4688,501.75 C517.3125,501.4844 517.0313,501.3438 516.7344,501.3438 C516.4375,501.3438 516.2344,501.4375 516.0156,501.75 L515.8438,501.6719 Z " fill="#000000"/><text fill="#000000" font-family="sans-serif" font-size="14" lengthAdjust="spacing" textLength="55" x="527.5" y="510.8467">BoardUI</text><line style="stroke:#181818;stroke-width:0.5;" x1="499.5" x2="584.5" y1="522" y2="522"/><line style="stroke:#181818;stroke-width:0.5;" x1="499.5" x2="584.5" y1="530" y2="530"/></g><!--class CompleteBoardUI--><g id="elem_CompleteBoardUI"><rect codeLine="34" fill="#F1F1F1" height="48" id="CompleteBoardUI" rx="2.5" ry="2.5" style="stroke:#181818;stroke-width:0.5;" width="159" x="462.5" y="343"/><ellipse cx="477.5" cy="359" fill="#ADD1B2" rx="11" ry="11" style="stroke:#181818;stroke-width:1.0;"/><path d="M479.8438,354.6719 C478.9063,354.2344 478.3125,354.0938 477.4375,354.0938 C474.8125,354.0938 472.8125,356.1719 472.8125,358.8906 L472.8125,360.0156 C472.8125,362.5938 474.9219,364.4844 477.8125,364.4844 C479.0313,364.4844 480.1875,364.1875 480.9375,363.6406 C481.5156,363.2344 481.8438,362.7813 481.8438,362.3906 C481.8438,361.9375 481.4531,361.5469 480.9844,361.5469 C480.7656,361.5469 480.5625,361.625 480.375,361.8125 C479.9219,362.2969 479.9219,362.2969 479.7344,362.3906 C479.3125,362.6563 478.625,362.7813 477.8594,362.7813 C475.8125,362.7813 474.5156,361.6875 474.5156,359.9844 L474.5156,358.8906 C474.5156,357.1094 475.7656,355.7969 477.5,355.7969 C478.0781,355.7969 478.6875,355.9531 479.1563,356.2031 C479.6406,356.4844 479.8125,356.7031 479.9063,357.1094 C479.9688,357.5156 480,357.6406 480.1406,357.7656 C480.2813,357.9063 480.5156,358.0156 480.7344,358.0156 C481,358.0156 481.2656,357.875 481.4375,357.6563 C481.5469,357.5 481.5781,357.3125 481.5781,356.8906 L481.5781,355.4688 C481.5781,355.0313 481.5625,354.9063 481.4688,354.75 C481.3125,354.4844 481.0313,354.3438 480.7344,354.3438 C480.4375,354.3438 480.2344,354.4375 480.0156,354.75 L479.8438,354.6719 Z " fill="#000000"/><text fill="#000000" font-family="sans-serif" font-size="14" lengthAdjust="spacing" textLength="127" x="491.5" y="363.8467">CompleteBoardUI</text><line style="stroke:#181818;stroke-width:0.5;" x1="463.5" x2="620.5" y1="375" y2="375"/><line style="stroke:#181818;stroke-width:0.5;" x1="463.5" x2="620.5" y1="383" y2="383"/></g><!--class PersonnageBoardUI--><g id="elem_PersonnageBoardUI"><rect codeLine="35" fill="#F1F1F1" height="48" id="PersonnageBoardUI" rx="2.5" ry="2.5" style="stroke:#181818;stroke-width:0.5;" width="171" x="656.5" y="343"/><ellipse cx="671.5" cy="359" fill="#ADD1B2" rx="11" ry="11" style="stroke:#181818;stroke-width:1.0;"/><path d="M673.8438,354.6719 C672.9063,354.2344 672.3125,354.0938 671.4375,354.0938 C668.8125,354.0938 666.8125,356.1719 666.8125,358.8906 L666.8125,360.0156 C666.8125,362.5938 668.9219,364.4844 671.8125,364.4844 C673.0313,364.4844 674.1875,364.1875 674.9375,363.6406 C675.5156,363.2344 675.8438,362.7813 675.8438,362.3906 C675.8438,361.9375 675.4531,361.5469 674.9844,361.5469 C674.7656,361.5469 674.5625,361.625 674.375,361.8125 C673.9219,362.2969 673.9219,362.2969 673.7344,362.3906 C673.3125,362.6563 672.625,362.7813 671.8594,362.7813 C669.8125,362.7813 668.5156,361.6875 668.5156,359.9844 L668.5156,358.8906 C668.5156,357.1094 669.7656,355.7969 671.5,355.7969 C672.0781,355.7969 672.6875,355.9531 673.1563,356.2031 C673.6406,356.4844 673.8125,356.7031 673.9063,357.1094 C673.9688,357.5156 674,357.6406 674.1406,357.7656 C674.2813,357.9063 674.5156,358.0156 674.7344,358.0156 C675,358.0156 675.2656,357.875 675.4375,357.6563 C675.5469,357.5 675.5781,357.3125 675.5781,356.8906 L675.5781,355.4688 C675.5781,355.0313 675.5625,354.9063 675.4688,354.75 C675.3125,354.4844 675.0313,354.3438 674.7344,354.3438 C674.4375,354.3438 674.2344,354.4375 674.0156,354.75 L673.8438,354.6719 Z " fill="#000000"/><text fill="#000000" font-family="sans-serif" font-size="14" lengthAdjust="spacing" textLength="139" x="685.5" y="363.8467">PersonnageBoardUI</text><line style="stroke:#181818;stroke-width:0.5;" x1="657.5" x2="826.5" y1="375" y2="375"/><line style="stroke:#181818;stroke-width:0.5;" x1="657.5" x2="826.5" y1="383" y2="383"/></g><!--class RemplirBoard--><g id="elem_RemplirBoard"><rect codeLine="36" fill="#F1F1F1" height="48" id="RemplirBoard" rx="2.5" ry="2.5" style="stroke:#181818;stroke-width:0.5;" width="131" x="620.5" y="490"/><ellipse cx="635.5" cy="506" fill="#ADD1B2" rx="11" ry="11" style="stroke:#181818;stroke-width:1.0;"/><path d="M637.8438,501.6719 C636.9063,501.2344 636.3125,501.0938 635.4375,501.0938 C632.8125,501.0938 630.8125,503.1719 630.8125,505.8906 L630.8125,507.0156 C630.8125,509.5938 632.9219,511.4844 635.8125,511.4844 C637.0313,511.4844 638.1875,511.1875 638.9375,510.6406 C639.5156,510.2344 639.8438,509.7813 639.8438,509.3906 C639.8438,508.9375 639.4531,508.5469 638.9844,508.5469 C638.7656,508.5469 638.5625,508.625 638.375,508.8125 C637.9219,509.2969 637.9219,509.2969 637.7344,509.3906 C637.3125,509.6563 636.625,509.7813 635.8594,509.7813 C633.8125,509.7813 632.5156,508.6875 632.5156,506.9844 L632.5156,505.8906 C632.5156,504.1094 633.7656,502.7969 635.5,502.7969 C636.0781,502.7969 636.6875,502.9531 637.1563,503.2031 C637.6406,503.4844 637.8125,503.7031 637.9063,504.1094 C637.9688,504.5156 638,504.6406 638.1406,504.7656 C638.2813,504.9063 638.5156,505.0156 638.7344,505.0156 C639,505.0156 639.2656,504.875 639.4375,504.6563 C639.5469,504.5 639.5781,504.3125 639.5781,503.8906 L639.5781,502.4688 C639.5781,502.0313 639.5625,501.9063 639.4688,501.75 C639.3125,501.4844 639.0313,501.3438 638.7344,501.3438 C638.4375,501.3438 638.2344,501.4375 638.0156,501.75 L637.8438,501.6719 Z " fill="#000000"/><text fill="#000000" font-family="sans-serif" font-size="14" lengthAdjust="spacing" textLength="99" x="649.5" y="510.8467">RemplirBoard</text><line style="stroke:#181818;stroke-width:0.5;" x1="621.5" x2="750.5" y1="522" y2="522"/><line style="stroke:#181818;stroke-width:0.5;" x1="621.5" x2="750.5" y1="530" y2="530"/></g><!--class PlayerCardUI--><g id="elem_PlayerCardUI"><rect codeLine="40" fill="#F1F1F1" height="48" id="PlayerCardUI" rx="2.5" ry="2.5" style="stroke:#181818;stroke-width:0.5;" width="122" x="1242" y="343"/><ellipse cx="1257" cy="359" fill="#ADD1B2" rx="11" ry="11" style="stroke:#181818;stroke-width:1.0;"/><path d="M1259.3438,354.6719 C1258.4063,354.2344 1257.8125,354.0938 1256.9375,354.0938 C1254.3125,354.0938 1252.3125,356.1719 1252.3125,358.8906 L1252.3125,360.0156 C1252.3125,362.5938 1254.4219,364.4844 1257.3125,364.4844 C1258.5313,364.4844 1259.6875,364.1875 1260.4375,363.6406 C1261.0156,363.2344 1261.3438,362.7813 1261.3438,362.3906 C1261.3438,361.9375 1260.9531,361.5469 1260.4844,361.5469 C1260.2656,361.5469 1260.0625,361.625 1259.875,361.8125 C1259.4219,362.2969 1259.4219,362.2969 1259.2344,362.3906 C1258.8125,362.6563 1258.125,362.7813 1257.3594,362.7813 C1255.3125,362.7813 1254.0156,361.6875 1254.0156,359.9844 L1254.0156,358.8906 C1254.0156,357.1094 1255.2656,355.7969 1257,355.7969 C1257.5781,355.7969 1258.1875,355.9531 1258.6563,356.2031 C1259.1406,356.4844 1259.3125,356.7031 1259.4063,357.1094 C1259.4688,357.5156 1259.5,357.6406 1259.6406,357.7656 C1259.7813,357.9063 1260.0156,358.0156 1260.2344,358.0156 C1260.5,358.0156 1260.7656,357.875 1260.9375,357.6563 C1261.0469,357.5 1261.0781,357.3125 1261.0781,356.8906 L1261.0781,355.4688 C1261.0781,355.0313 1261.0625,354.9063 1260.9688,354.75 C1260.8125,354.4844 1260.5313,354.3438 1260.2344,354.3438 C1259.9375,354.3438 1259.7344,354.4375 1259.5156,354.75 L1259.3438,354.6719 Z " fill="#000000"/><text fill="#000000" font-family="sans-serif" font-size="14" lengthAdjust="spacing" textLength="90" x="1271" y="363.8467">PlayerCardUI</text><line style="stroke:#181818;stroke-width:0.5;" x1="1243" x2="1363" y1="375" y2="375"/><line style="stroke:#181818;stroke-width:0.5;" x1="1243" x2="1363" y1="383" y2="383"/></g><!--class PlayerGemsUI--><g id="elem_PlayerGemsUI"><rect codeLine="41" fill="#F1F1F1" height="48" id="PlayerGemsUI" rx="2.5" ry="2.5" style="stroke:#181818;stroke-width:0.5;" width="130" x="1077" y="343"/><ellipse cx="1092" cy="359" fill="#ADD1B2" rx="11" ry="11" style="stroke:#181818;stroke-width:1.0;"/><path d="M1094.3438,354.6719 C1093.4063,354.2344 1092.8125,354.0938 1091.9375,354.0938 C1089.3125,354.0938 1087.3125,356.1719 1087.3125,358.8906 L1087.3125,360.0156 C1087.3125,362.5938 1089.4219,364.4844 1092.3125,364.4844 C1093.5313,364.4844 1094.6875,364.1875 1095.4375,363.6406 C1096.0156,363.2344 1096.3438,362.7813 1096.3438,362.3906 C1096.3438,361.9375 1095.9531,361.5469 1095.4844,361.5469 C1095.2656,361.5469 1095.0625,361.625 1094.875,361.8125 C1094.4219,362.2969 1094.4219,362.2969 1094.2344,362.3906 C1093.8125,362.6563 1093.125,362.7813 1092.3594,362.7813 C1090.3125,362.7813 1089.0156,361.6875 1089.0156,359.9844 L1089.0156,358.8906 C1089.0156,357.1094 1090.2656,355.7969 1092,355.7969 C1092.5781,355.7969 1093.1875,355.9531 1093.6563,356.2031 C1094.1406,356.4844 1094.3125,356.7031 1094.4063,357.1094 C1094.4688,357.5156 1094.5,357.6406 1094.6406,357.7656 C1094.7813,357.9063 1095.0156,358.0156 1095.2344,358.0156 C1095.5,358.0156 1095.7656,357.875 1095.9375,357.6563 C1096.0469,357.5 1096.0781,357.3125 1096.0781,356.8906 L1096.0781,355.4688 C1096.0781,355.0313 1096.0625,354.9063 1095.9688,354.75 C1095.8125,354.4844 1095.5313,354.3438 1095.2344,354.3438 C1094.9375,354.3438 1094.7344,354.4375 1094.5156,354.75 L1094.3438,354.6719 Z " fill="#000000"/><text fill="#000000" font-family="sans-serif" font-size="14" lengthAdjust="spacing" textLength="98" x="1106" y="363.8467">PlayerGemsUI</text><line style="stroke:#181818;stroke-width:0.5;" x1="1078" x2="1206" y1="375" y2="375"/><line style="stroke:#181818;stroke-width:0.5;" x1="1078" x2="1206" y1="383" y2="383"/></g><!--class PlayerNameUI--><g id="elem_PlayerNameUI"><rect codeLine="42" fill="#F1F1F1" height="48" id="PlayerNameUI" rx="2.5" ry="2.5" style="stroke:#181818;stroke-width:0.5;" width="130" x="1399" y="343"/><ellipse cx="1414" cy="359" fill="#ADD1B2" rx="11" ry="11" style="stroke:#181818;stroke-width:1.0;"/><path d="M1416.3438,354.6719 C1415.4063,354.2344 1414.8125,354.0938 1413.9375,354.0938 C1411.3125,354.0938 1409.3125,356.1719 1409.3125,358.8906 L1409.3125,360.0156 C1409.3125,362.5938 1411.4219,364.4844 1414.3125,364.4844 C1415.5313,364.4844 1416.6875,364.1875 1417.4375,363.6406 C1418.0156,363.2344 1418.3438,362.7813 1418.3438,362.3906 C1418.3438,361.9375 1417.9531,361.5469 1417.4844,361.5469 C1417.2656,361.5469 1417.0625,361.625 1416.875,361.8125 C1416.4219,362.2969 1416.4219,362.2969 1416.2344,362.3906 C1415.8125,362.6563 1415.125,362.7813 1414.3594,362.7813 C1412.3125,362.7813 1411.0156,361.6875 1411.0156,359.9844 L1411.0156,358.8906 C1411.0156,357.1094 1412.2656,355.7969 1414,355.7969 C1414.5781,355.7969 1415.1875,355.9531 1415.6563,356.2031 C1416.1406,356.4844 1416.3125,356.7031 1416.4063,357.1094 C1416.4688,357.5156 1416.5,357.6406 1416.6406,357.7656 C1416.7813,357.9063 1417.0156,358.0156 1417.2344,358.0156 C1417.5,358.0156 1417.7656,357.875 1417.9375,357.6563 C1418.0469,357.5 1418.0781,357.3125 1418.0781,356.8906 L1418.0781,355.4688 C1418.0781,355.0313 1418.0625,354.9063 1417.9688,354.75 C1417.8125,354.4844 1417.5313,354.3438 1417.2344,354.3438 C1416.9375,354.3438 1416.7344,354.4375 1416.5156,354.75 L1416.3438,354.6719 Z " fill="#000000"/><text fill="#000000" font-family="sans-serif" font-size="14" lengthAdjust="spacing" textLength="98" x="1428" y="363.8467">PlayerNameUI</text><line style="stroke:#181818;stroke-width:0.5;" x1="1400" x2="1528" y1="375" y2="375"/><line style="stroke:#181818;stroke-width:0.5;" x1="1400" x2="1528" y1="383" y2="383"/></g><!--class PlayerPoints--><g id="elem_PlayerPoints"><rect codeLine="43" fill="#F1F1F1" height="48" id="PlayerPoints" rx="2.5" ry="2.5" style="stroke:#181818;stroke-width:0.5;" width="121" x="1564.5" y="343"/><ellipse cx="1579.5" cy="359" fill="#ADD1B2" rx="11" ry="11" style="stroke:#181818;stroke-width:1.0;"/><path d="M1581.8438,354.6719 C1580.9063,354.2344 1580.3125,354.0938 1579.4375,354.0938 C1576.8125,354.0938 1574.8125,356.1719 1574.8125,358.8906 L1574.8125,360.0156 C1574.8125,362.5938 1576.9219,364.4844 1579.8125,364.4844 C1581.0313,364.4844 1582.1875,364.1875 1582.9375,363.6406 C1583.5156,363.2344 1583.8438,362.7813 1583.8438,362.3906 C1583.8438,361.9375 1583.4531,361.5469 1582.9844,361.5469 C1582.7656,361.5469 1582.5625,361.625 1582.375,361.8125 C1581.9219,362.2969 1581.9219,362.2969 1581.7344,362.3906 C1581.3125,362.6563 1580.625,362.7813 1579.8594,362.7813 C1577.8125,362.7813 1576.5156,361.6875 1576.5156,359.9844 L1576.5156,358.8906 C1576.5156,357.1094 1577.7656,355.7969 1579.5,355.7969 C1580.0781,355.7969 1580.6875,355.9531 1581.1563,356.2031 C1581.6406,356.4844 1581.8125,356.7031 1581.9063,357.1094 C1581.9688,357.5156 1582,357.6406 1582.1406,357.7656 C1582.2813,357.9063 1582.5156,358.0156 1582.7344,358.0156 C1583,358.0156 1583.2656,357.875 1583.4375,357.6563 C1583.5469,357.5 1583.5781,357.3125 1583.5781,356.8906 L1583.5781,355.4688 C1583.5781,355.0313 1583.5625,354.9063 1583.4688,354.75 C1583.3125,354.4844 1583.0313,354.3438 1582.7344,354.3438 C1582.4375,354.3438 1582.2344,354.4375 1582.0156,354.75 L1581.8438,354.6719 Z " fill="#000000"/><text fill="#000000" font-family="sans-serif" font-size="14" lengthAdjust="spacing" textLength="89" x="1593.5" y="363.8467">PlayerPoints</text><line style="stroke:#181818;stroke-width:0.5;" x1="1565.5" x2="1684.5" y1="375" y2="375"/><line style="stroke:#181818;stroke-width:0.5;" x1="1565.5" x2="1684.5" y1="383" y2="383"/></g><!--class PlayerUI--><g id="elem_PlayerUI"><rect codeLine="44" fill="#F1F1F1" height="48" id="PlayerUI" rx="2.5" ry="2.5" style="stroke:#181818;stroke-width:0.5;" width="89" x="1720.5" y="343"/><ellipse cx="1735.5" cy="359" fill="#ADD1B2" rx="11" ry="11" style="stroke:#181818;stroke-width:1.0;"/><path d="M1737.8438,354.6719 C1736.9063,354.2344 1736.3125,354.0938 1735.4375,354.0938 C1732.8125,354.0938 1730.8125,356.1719 1730.8125,358.8906 L1730.8125,360.0156 C1730.8125,362.5938 1732.9219,364.4844 1735.8125,364.4844 C1737.0313,364.4844 1738.1875,364.1875 1738.9375,363.6406 C1739.5156,363.2344 1739.8438,362.7813 1739.8438,362.3906 C1739.8438,361.9375 1739.4531,361.5469 1738.9844,361.5469 C1738.7656,361.5469 1738.5625,361.625 1738.375,361.8125 C1737.9219,362.2969 1737.9219,362.2969 1737.7344,362.3906 C1737.3125,362.6563 1736.625,362.7813 1735.8594,362.7813 C1733.8125,362.7813 1732.5156,361.6875 1732.5156,359.9844 L1732.5156,358.8906 C1732.5156,357.1094 1733.7656,355.7969 1735.5,355.7969 C1736.0781,355.7969 1736.6875,355.9531 1737.1563,356.2031 C1737.6406,356.4844 1737.8125,356.7031 1737.9063,357.1094 C1737.9688,357.5156 1738,357.6406 1738.1406,357.7656 C1738.2813,357.9063 1738.5156,358.0156 1738.7344,358.0156 C1739,358.0156 1739.2656,357.875 1739.4375,357.6563 C1739.5469,357.5 1739.5781,357.3125 1739.5781,356.8906 L1739.5781,355.4688 C1739.5781,355.0313 1739.5625,354.9063 1739.4688,354.75 C1739.3125,354.4844 1739.0313,354.3438 1738.7344,354.3438 C1738.4375,354.3438 1738.2344,354.4375 1738.0156,354.75 L1737.8438,354.6719 Z " fill="#000000"/><text fill="#000000" font-family="sans-serif" font-size="14" lengthAdjust="spacing" textLength="57" x="1749.5" y="363.8467">PlayerUI</text><line style="stroke:#181818;stroke-width:0.5;" x1="1721.5" x2="1808.5" y1="375" y2="375"/><line style="stroke:#181818;stroke-width:0.5;" x1="1721.5" x2="1808.5" y1="383" y2="383"/></g><!--reverse link Bag to EnumGemmes--><g id="link_Bag_EnumGemmes"><path codeLine="48" d="M2120.779,646.3195 C2118.359,684.9125 2114.28,749.841 2111.71,790.8195 " fill="none" id="Bag-backto-EnumGemmes" style="stroke:#181818;stroke-width:1.0;"/><polygon fill="none" points="2121.53,634.343,2117.1623,640.0809,2120.779,646.3195,2125.1467,640.5816,2121.53,634.343" style="stroke:#181818;stroke-width:1.0;"/><text fill="#000000" font-family="sans-serif" font-size="13" lengthAdjust="spacing" textLength="32" x="2076.5841" y="780.0674">0..25</text></g><!--reverse link Board to EnumGemmes--><g id="link_Board_EnumGemmes"><path codeLine="50" d="M2483.0306,640.5119 C2437.0706,670.2049 2363.2,715.834 2287,752 C2252.04,768.593 2211.7,783.9122 2178.37,795.6061 " fill="none" id="Board-backto-EnumGemmes" style="stroke:#181818;stroke-width:1.0;"/><polygon fill="none" points="2493.11,634,2485.8996,633.8962,2483.0306,640.5119,2490.2409,640.6158,2493.11,634" style="stroke:#181818;stroke-width:1.0;"/><text fill="#000000" font-family="sans-serif" font-size="13" lengthAdjust="spacing" textLength="32" x="2185.7639" y="785.766">0..25</text></g><!--reverse link Card to EnumGemmes--><g id="link_Card_EnumGemmes"><path codeLine="52" d="M2205.8731,720.6161 C2184.1931,742.6471 2159.9,767.31 2136.91,790.6621 " fill="none" id="Card-backto-EnumGemmes" style="stroke:#181818;stroke-width:1.0;"/><polygon fill="none" points="2214.29,712.063,2207.2305,713.5339,2205.8731,720.6161,2212.9326,719.1452,2214.29,712.063" style="stroke:#181818;stroke-width:1.0;"/><text fill="#000000" font-family="sans-serif" font-size="13" lengthAdjust="spacing" textLength="8" x="2133.9216" y="779.8748">1</text></g><!--reverse link Card to EnumAction--><g id="link_Card_EnumAction"><path codeLine="53" d="M2246.6646,723.6216 C2253.1746,746.9566 2259.96,771.283 2266.5,794.7021 " fill="none" id="Card-backto-EnumAction" style="stroke:#181818;stroke-width:1.0;"/><polygon fill="none" points="2243.44,712.063,2241.1994,718.9172,2246.6646,723.6216,2248.9052,716.7674,2243.44,712.063" style="stroke:#181818;stroke-width:1.0;"/><text fill="#000000" font-family="sans-serif" font-size="13" lengthAdjust="spacing" textLength="24" x="2237.9906" y="784.0344">0..2</text></g><!--reverse link DrawPile to Card--><g id="link_DrawPile_Card"><path codeLine="55" d="M2185.8151,549.4435 C2198.0651,582.3625 2216.17,631.029 2228.4,663.897 " fill="none" id="DrawPile-backto-Card" style="stroke:#181818;stroke-width:1.0;"/><polygon fill="#181818" points="2181.63,538.197,2179.9737,545.2153,2185.8151,549.4435,2187.4714,542.4252,2181.63,538.197" style="stroke:#181818;stroke-width:1.0;"/><text fill="#000000" font-family="sans-serif" font-size="13" lengthAdjust="spacing" textLength="7" x="2218.2994" y="652.8826">*</text></g><!--reverse link SingletonGameHandler to Bag--><g id="link_SingletonGameHandler_Bag"><path codeLine="57" d="M2235.2572,401.0174 C2183.0372,431.2764 2115.71,471.929 2108,486 C2088.34,521.854 2098.86,538.145 2108,578 C2108.59,580.564 2109.42,583.163 2110.39,585.708 " fill="none" id="SingletonGameHandler-backto-Bag" style="stroke:#181818;stroke-width:1.0;"/><polygon fill="#181818" points="2245.64,395.001,2238.4431,394.5482,2235.2572,401.0174,2242.454,401.4701,2245.64,395.001" style="stroke:#181818;stroke-width:1.0;"/><text fill="#000000" font-family="sans-serif" font-size="13" lengthAdjust="spacing" textLength="8" x="2098.3413" y="575.0418">1</text></g><!--reverse link SingletonGameHandler to Board--><g id="link_SingletonGameHandler_Board"><path codeLine="58" d="M2344.7311,401.1796 C2366.4011,414.0806 2383.56,422.404 2410,431 C2435.17,439.182 2444.8,428.294 2469,439 C2498.72,452.146 2510.91,456.72 2525,486 C2540.37,517.952 2537.07,560.184 2532.85,585.93 " fill="none" id="SingletonGameHandler-backto-Board" style="stroke:#181818;stroke-width:1.0;"/><polygon fill="#181818" points="2334.42,395.041,2337.5293,401.5473,2344.7311,401.1796,2341.6217,394.6733,2334.42,395.041" style="stroke:#181818;stroke-width:1.0;"/><text fill="#000000" font-family="sans-serif" font-size="13" lengthAdjust="spacing" textLength="8" x="2525.0678" y="574.9241">1</text></g><!--reverse link SingletonGameHandler to DrawPile--><g id="link_SingletonGameHandler_DrawPile"><path codeLine="59" d="M2262.7794,404.5179 C2240.2394,431.7549 2213.61,463.925 2192.3,489.678 " fill="none" id="SingletonGameHandler-backto-DrawPile" style="stroke:#181818;stroke-width:1.0;"/><polygon fill="#181818" points="2270.43,395.273,2263.5231,397.3452,2262.7794,404.5179,2269.6863,402.4457,2270.43,395.273" style="stroke:#181818;stroke-width:1.0;"/><text fill="#000000" font-family="sans-serif" font-size="13" lengthAdjust="spacing" textLength="8" x="2188.0294" y="479.0045">3</text></g><!--reverse link SingletonGameHandler to Card--><g id="link_SingletonGameHandler_Card"><path codeLine="60" d="M2286.1548,407.0172 C2275.3348,468.6412 2251.18,606.199 2241.07,663.805 " fill="none" id="SingletonGameHandler-backto-Card" style="stroke:#181818;stroke-width:1.0;"/><polygon fill="#181818" points="2288.23,395.198,2283.2527,400.4159,2286.1548,407.0172,2291.1321,401.7993,2288.23,395.198" style="stroke:#181818;stroke-width:1.0;"/><text fill="#000000" font-family="sans-serif" font-size="13" lengthAdjust="spacing" textLength="98" x="2273" y="518.5669">displayedCards</text><text fill="#000000" font-family="sans-serif" font-size="13" lengthAdjust="spacing" textLength="7" x="2234.2161" y="652.7671">*</text></g><!--reverse link SingletonGameHandler to Card--><g id="link_SingletonGameHandler_Card"><path codeLine="61" d="M2329.1586,403.8466 C2349.9286,426.0456 2368.39,450.699 2380,486 C2392.77,524.843 2398.14,541.357 2380,578 C2368.12,601.988 2307.98,642.755 2269.57,667.053 " fill="none" id="SingletonGameHandler-backto-Card-1" style="stroke:#181818;stroke-width:1.0;"/><polygon fill="#181818" points="2320.96,395.084,2322.1384,402.1982,2329.1586,403.8466,2327.9802,396.7325,2320.96,395.084" style="stroke:#181818;stroke-width:1.0;"/><text fill="#000000" font-family="sans-serif" font-size="13" lengthAdjust="spacing" textLength="55" x="2392" y="518.5669">toAssign</text><text fill="#000000" font-family="sans-serif" font-size="13" lengthAdjust="spacing" textLength="24" x="2277.509" y="659.0646">0..1</text></g><!--reverse link SingletonGameHandler to Player--><g id="link_SingletonGameHandler_Player"><path codeLine="62" d="M2243.2803,401.4006 C2221.4503,414.8356 2203.48,423.473 2176,431 C2154.98,436.758 1995.09,423.277 1980,439 C1966.25,453.326 1978.04,473.911 1991.7,489.735 " fill="none" id="SingletonGameHandler-backto-Player" style="stroke:#181818;stroke-width:1.0;"/><polygon fill="#181818" points="2253.5,395.111,2246.2937,394.8492,2243.2803,401.4006,2250.4867,401.6623,2253.5,395.111" style="stroke:#181818;stroke-width:1.0;"/><text fill="#000000" font-family="sans-serif" font-size="13" lengthAdjust="spacing" textLength="48" x="1981" y="452.0669">player1</text><text fill="#000000" font-family="sans-serif" font-size="13" lengthAdjust="spacing" textLength="8" x="1976.8019" y="479.0754">1</text></g><!--reverse link SingletonGameHandler to Player--><g id="link_SingletonGameHandler_Player"><path codeLine="63" d="M2242.6066,401.2894 C2220.8266,414.5324 2203.12,423.064 2176,431 C2153.33,437.633 2090.64,427.512 2070,439 C2049.85,450.215 2035.2,472.466 2026.29,489.653 " fill="none" id="SingletonGameHandler-backto-Player-1" style="stroke:#181818;stroke-width:1.0;"/><polygon fill="#181818" points="2252.86,395.055,2245.6552,394.7544,2242.6066,401.2894,2249.8114,401.59,2252.86,395.055" style="stroke:#181818;stroke-width:1.0;"/><text fill="#000000" font-family="sans-serif" font-size="13" lengthAdjust="spacing" textLength="48" x="2071" y="452.0669">player2</text><text fill="#000000" font-family="sans-serif" font-size="13" lengthAdjust="spacing" textLength="8" x="2019.8232" y="478.9734">1</text></g><!--reverse link SingletonGameHandler to EnumGemmes--><g id="link_SingletonGameHandler_EnumGemmes"><path codeLine="64" d="M2243.2935,401.4357 C2221.4735,414.8797 2203.49,423.51 2176,431 C2153.47,437.138 1983.23,423.239 1966,439 C1861.67,534.443 1934.59,641.652 2023,752 C2034.85,766.795 2050.72,780.1026 2065.66,790.8268 " fill="none" id="SingletonGameHandler-backto-EnumGemmes" style="stroke:#181818;stroke-width:1.0;"/><polygon fill="none" points="2253.51,395.141,2246.3035,394.8829,2243.2935,401.4357,2250.5,401.6938,2253.51,395.141" style="stroke:#181818;stroke-width:1.0;"/><text fill="#000000" font-family="sans-serif" font-size="13" lengthAdjust="spacing" textLength="96" x="1942" y="614.5669">gemme to pick</text><text fill="#000000" font-family="sans-serif" font-size="13" lengthAdjust="spacing" textLength="8" x="2047.0856" y="780.0759">1</text></g><!--reverse link Player to AI--><g id="link_Player_AI"><path codeLine="66" d="M2055.0162,551.0513 C2067.4662,563.7603 2068.41,567.761 2075,586 C2084.23,611.547 2078.37,642.908 2072.24,663.842 " fill="none" id="Player-backto-AI" style="stroke:#181818;stroke-width:1.0;"/><polygon fill="none" points="2042.42,538.193,2050.7301,555.25,2059.3023,546.8525,2042.42,538.193" style="stroke:#181818;stroke-width:1.0;"/></g><!--reverse link SingletonNobleHandler to Card--><g id="link_SingletonNobleHandler_Card"><path codeLine="68" d="M2665.6282,552.2862 C2647.7382,580.2202 2622.41,612.473 2583,634 C2529.13,663.421 2344.85,679.411 2269.5,684.847 " fill="none" id="SingletonNobleHandler-backto-Card" style="stroke:#181818;stroke-width:1.0;"/><polygon fill="#181818" points="2672.1,542.181,2665.4957,545.0764,2665.6282,552.2862,2672.2325,549.3909,2672.1,542.181" style="stroke:#181818;stroke-width:1.0;"/><text fill="#000000" font-family="sans-serif" font-size="13" lengthAdjust="spacing" textLength="42" x="2639" y="614.5669">nobles</text><text fill="#000000" font-family="sans-serif" font-size="13" lengthAdjust="spacing" textLength="8" x="2277.4844" y="679.5981">4</text></g><!--reverse link Player to Card--><g id="link_Player_Card"><path codeLine="70" d="M2052.3064,546.2295 C2065.8764,559.0075 2072.57,567.761 2082,586 C2092.01,605.357 2077.75,617.515 2092,634 C2120.4,666.847 2170.92,679.346 2204.19,684.096 " fill="none" id="Player-backto-Card" style="stroke:#181818;stroke-width:1.0;"/><polygon fill="#181818" points="2043.57,538.003,2045.196,545.0284,2052.3064,546.2295,2050.6804,539.2041,2043.57,538.003" style="stroke:#181818;stroke-width:1.0;"/><text fill="#000000" font-family="sans-serif" font-size="13" lengthAdjust="spacing" textLength="7" x="2189.7011" y="678.8245">*</text></g><!--reverse link CardUI to Card--><g id="link_CardUI_Card"><path codeLine="72" d="M1353.8214,524.852 C1452.6514,543.978 1709.04,593.327 1933,634 C1984.92,643.429 2136.95,669.732 2204.27,681.355 " fill="none" id="CardUI-backto-Card" style="stroke:#181818;stroke-width:1.0;"/><polygon fill="none" points="1342.04,522.572,1347.1707,527.6391,1353.8214,524.852,1348.6907,519.7849,1342.04,522.572" style="stroke:#181818;stroke-width:1.0;"/><text fill="#000000" font-family="sans-serif" font-size="13" lengthAdjust="spacing" textLength="7" x="2189.3447" y="693.6235">*</text></g><!--reverse link GemmesUI to EnumGemmes--><g id="link_GemmesUI_EnumGemmes"><path codeLine="74" d="M1208.7148,697.8901 C1374.6948,720.0091 1859.66,784.6381 2041.96,808.933 " fill="none" id="GemmesUI-backto-EnumGemmes" style="stroke:#181818;stroke-width:1.0;"/><polygon fill="none" points="1196.82,696.305,1202.239,701.0625,1208.7148,697.8901,1203.2958,693.1326,1196.82,696.305" style="stroke:#181818;stroke-width:1.0;"/><text fill="#000000" font-family="sans-serif" font-size="13" lengthAdjust="spacing" textLength="8" x="2026.0806" y="804.0712">1</text></g><!--reverse link PrivilegeBoardUI to PrivilegeUI--><g id="link_PrivilegeBoardUI_PrivilegeUI"><path codeLine="76" d="M339,403.297 C339,430.355 339,462.727 339,489.761 " fill="none" id="PrivilegeBoardUI-backto-PrivilegeUI" style="stroke:#181818;stroke-width:1.0;"/><polygon fill="#181818" points="339,391.297,335,397.297,339,403.297,343,397.297,339,391.297" style="stroke:#181818;stroke-width:1.0;"/><text fill="#000000" font-family="sans-serif" font-size="13" lengthAdjust="spacing" textLength="7" x="331.1469" y="479.1077">*</text></g><!--reverse link SingletonSplendorDuel to CompleteBoardUI--><g id="link_SingletonSplendorDuel_CompleteBoardUI"><path codeLine="78" d="M425.6304,253.3436 C438.0414,264.9506 444.488,271.061 458,284 C478.607,303.734 501.797,326.408 518.582,342.904 " fill="none" id="SingletonSplendorDuel-backto-CompleteBoardUI" style="stroke:#181818;stroke-width:1.0;"/><polygon fill="#181818" points="416.866,245.147,418.516,252.1668,425.6304,253.3436,423.9804,246.3239,416.866,245.147" style="stroke:#181818;stroke-width:1.0;"/><text fill="#000000" font-family="sans-serif" font-size="13" lengthAdjust="spacing" textLength="8" x="503.5561" y="331.8914">1</text></g><!--reverse link SingletonSplendorDuel to PlayerUI--><g id="link_SingletonSplendorDuel_PlayerUI"><path codeLine="79" d="M503.213,221.8912 C790.418,222.2062 1596.91,228.045 1703,284 C1727,296.655 1744.35,323.191 1754.5,342.662 " fill="none" id="SingletonSplendorDuel-backto-PlayerUI" style="stroke:#181818;stroke-width:1.0;"/><polygon fill="#181818" points="491.213,221.878,497.2086,225.8846,503.213,221.8912,497.2174,217.8846,491.213,221.878" style="stroke:#181818;stroke-width:1.0;"/><text fill="#000000" font-family="sans-serif" font-size="13" lengthAdjust="spacing" textLength="8" x="1742.9656" y="331.9846">2</text></g><!--reverse link SingletonSplendorDuel to PrivilegeBoardUI--><g id="link_SingletonSplendorDuel_PrivilegeBoardUI"><path codeLine="80" d="M379.3399,256.3974 C369.4489,283.2694 357.376,316.074 347.494,342.921 " fill="none" id="SingletonSplendorDuel-backto-PrivilegeBoardUI" style="stroke:#181818;stroke-width:1.0;"/><polygon fill="#181818" points="383.485,245.136,377.6587,249.385,379.3399,256.3974,385.1663,252.1484,383.485,245.136" style="stroke:#181818;stroke-width:1.0;"/><text fill="#000000" font-family="sans-serif" font-size="13" lengthAdjust="spacing" textLength="8" x="340.6456" y="331.9128">1</text></g><!--reverse link SingletonSplendorDuel to InformationMessageUI--><g id="link_SingletonSplendorDuel_InformationMessageUI"><path codeLine="81" d="M318.3896,249.6488 C292.2526,260.2348 273.077,269.211 247,284 C216.428,301.339 184.236,325.343 162.067,342.899 " fill="none" id="SingletonSplendorDuel-backto-InformationMessageUI" style="stroke:#181818;stroke-width:1.0;"/><polygon fill="#181818" points="329.512,245.144,322.4492,243.6889,318.3896,249.6488,325.4524,251.1038,329.512,245.144" style="stroke:#181818;stroke-width:1.0;"/><text fill="#000000" font-family="sans-serif" font-size="13" lengthAdjust="spacing" textLength="8" x="160.2342" y="331.8852">1</text></g><!--reverse link BoardCard to CardUI--><g id="link_BoardCard_CardUI"><path codeLine="83" d="M938.8889,400.8579 C949.1319,414.3739 956.422,421.075 973,431 C1067.34,487.478 1199.08,505.18 1263.87,510.633 " fill="none" id="BoardCard-backto-CardUI" style="stroke:#181818;stroke-width:1.0;"/><polygon fill="#181818" points="931.641,391.294,932.077,398.4919,938.8889,400.8579,938.4529,393.66,931.641,391.294" style="stroke:#181818;stroke-width:1.0;"/><text fill="#000000" font-family="sans-serif" font-size="13" lengthAdjust="spacing" textLength="24" x="1232.0407" y="506.0461">0..5</text></g><!--reverse link BoardUI to GemmesUI--><g id="link_BoardUI_GemmesUI"><path codeLine="85" d="M566.2003,547.5719 C577.2413,561.2439 585.369,568.356 603,578 C763.399,665.737 985.44,683.205 1087.14,686.437 " fill="none" id="BoardUI-backto-GemmesUI" style="stroke:#181818;stroke-width:1.0;"/><polygon fill="#181818" points="558.661,538.236,559.3187,545.417,566.2003,547.5719,565.5426,540.3908,558.661,538.236" style="stroke:#181818;stroke-width:1.0;"/><text fill="#000000" font-family="sans-serif" font-size="13" lengthAdjust="spacing" textLength="32" x="1047.3897" y="682.5199">0..25</text></g><!--reverse link CompleteBoardUI to BoardUI--><g id="link_CompleteBoardUI_BoardUI"><path codeLine="87" d="M542,403.297 C542,430.355 542,462.727 542,489.761 " fill="none" id="CompleteBoardUI-backto-BoardUI" style="stroke:#181818;stroke-width:1.0;"/><polygon fill="none" points="542,391.297,538,397.297,542,403.297,546,397.297,542,391.297" style="stroke:#181818;stroke-width:1.0;"/><text fill="#000000" font-family="sans-serif" font-size="13" lengthAdjust="spacing" textLength="8" x="533.025" y="479.1077">1</text></g><!--reverse link CompleteBoardUI to RemplirBoard--><g id="link_CompleteBoardUI_RemplirBoard"><path codeLine="88" d="M570.3935,400.2979 C586.4465,418.3529 601.619,434.801 623,456 C634.626,467.527 648.015,479.774 659.451,489.95 " fill="none" id="CompleteBoardUI-backto-RemplirBoard" style="stroke:#181818;stroke-width:1.0;"/><polygon fill="#181818" points="562.42,391.33,563.4175,398.4718,570.3935,400.2979,569.3961,393.1561,562.42,391.33" style="stroke:#181818;stroke-width:1.0;"/><text fill="#000000" font-family="sans-serif" font-size="13" lengthAdjust="spacing" textLength="8" x="643.6228" y="478.9492">1</text></g><!--reverse link PersonnageBoardUI to CardUI--><g id="link_PersonnageBoardUI_CardUI"><path codeLine="90" d="M782.7679,397.8898 C802.4509,411.4968 819.157,421.114 845,431 C993.06,487.641 1183.27,505.629 1264,510.941 " fill="none" id="PersonnageBoardUI-backto-CardUI" style="stroke:#181818;stroke-width:1.0;"/><polygon fill="#181818" points="772.897,391.066,775.5578,397.7682,782.7679,397.8898,780.1071,391.1876,772.897,391.066" style="stroke:#181818;stroke-width:1.0;"/><text fill="#000000" font-family="sans-serif" font-size="13" lengthAdjust="spacing" textLength="7" x="1248.8984" y="523.8671">*</text></g><!--reverse link PlayerCardUI to CardUI--><g id="link_PlayerCardUI_CardUI"><path codeLine="92" d="M1303,403.297 C1303,430.355 1303,462.727 1303,489.761 " fill="none" id="PlayerCardUI-backto-CardUI" style="stroke:#181818;stroke-width:1.0;"/><polygon fill="#181818" points="1303,391.297,1299,397.297,1303,403.297,1307,397.297,1303,391.297" style="stroke:#181818;stroke-width:1.0;"/><text fill="#000000" font-family="sans-serif" font-size="13" lengthAdjust="spacing" textLength="7" x="1295.1469" y="479.1077">*</text></g><!--reverse link PlayerGemsUI to GemmesUI--><g id="link_PlayerGemsUI_GemmesUI"><path codeLine="94" d="M1142,403.199 C1142,462.125 1142,605.056 1142,663.888 " fill="none" id="PlayerGemsUI-backto-GemmesUI" style="stroke:#181818;stroke-width:1.0;"/><polygon fill="#181818" points="1142,391.199,1138,397.199,1142,403.199,1146,397.199,1142,391.199" style="stroke:#181818;stroke-width:1.0;"/><text fill="#000000" font-family="sans-serif" font-size="13" lengthAdjust="spacing" textLength="8" x="1132.975" y="652.8713">7</text></g><!--reverse link PlayerPoints to CardUI--><g id="link_PlayerPoints_CardUI"><path codeLine="96" d="M1591.635,399.0729 C1576.775,412.1949 1565.87,420.164 1546,431 C1478.57,467.777 1391.68,492.223 1342.17,504.257 " fill="none" id="PlayerPoints-backto-CardUI" style="stroke:#181818;stroke-width:1.0;"/><polygon fill="#181818" points="1600.63,391.13,1593.4849,392.1031,1591.635,399.0729,1598.7802,398.0998,1600.63,391.13" style="stroke:#181818;stroke-width:1.0;"/><text fill="#000000" font-family="sans-serif" font-size="13" lengthAdjust="spacing" textLength="8" x="1350.1295" y="498.157">3</text></g><!--reverse link PlayerPoints to Player--><g id="link_PlayerPoints_Player"><path codeLine="97" d="M1654.7353,399.5193 C1669.2253,413.7033 1681.15,422.356 1703,431 C1747.76,448.704 1764.04,428.434 1811,439 C1831.45,443.602 1835.34,448.723 1855,456 C1896.85,471.49 1945.14,488.467 1977.83,499.829 " fill="none" id="PlayerPoints-backto-Player" style="stroke:#181818;stroke-width:1.0;"/><polygon fill="#181818" points="1646.16,391.125,1647.6496,398.1806,1654.7353,399.5193,1653.2458,392.4637,1646.16,391.125" style="stroke:#181818;stroke-width:1.0;"/><text fill="#000000" font-family="sans-serif" font-size="13" lengthAdjust="spacing" textLength="8" x="1962.0549" y="510.6782">1</text></g><!--reverse link PlayerUI to Player--><g id="link_PlayerUI_Player"><path codeLine="99" d="M1782.9356,401.3739 C1791.1956,415.1659 1797.37,421.504 1813,431 C1830.73,441.775 1839.21,432.742 1859,439 C1901.23,452.358 1946.73,474.775 1977.82,491.443 " fill="none" id="PlayerUI-backto-Player" style="stroke:#181818;stroke-width:1.0;"/><polygon fill="none" points="1776.77,391.079,1776.4212,398.2817,1782.9356,401.3739,1783.2844,394.1713,1776.77,391.079" style="stroke:#181818;stroke-width:1.0;"/><text fill="#000000" font-family="sans-serif" font-size="13" lengthAdjust="spacing" textLength="8" x="1962.0431" y="482.9804">1</text></g><!--link PlayerUI to BackgroundWidgetUI--><g id="link_PlayerUI_BackgroundWidgetUI"><path codeLine="100" d="M1765,391.297 C1765,418.355 1765,444.727 1765,471.761 " fill="none" id="PlayerUI-to-BackgroundWidgetUI" style="stroke:#181818;stroke-width:1.0;"/><polygon fill="none" points="1765,489.761,1771,471.761,1759,471.761,1765,489.761" style="stroke:#181818;stroke-width:1.0;"/></g><!--reverse link Image to UI--><g id="link_Image_UI"><path codeLine="102" d="M1992.77,69.858 C1721.06,69.135 96.857,67.753 22,138 C18.7666,141.0343 16.199,144.5361 14.1833,148.3477 C13.6794,149.3006 13.21,150.2729 12.7733,151.2621 C12.5549,151.7567 12.3447,152.2555 12.1425,152.7582 C12.0414,153.0096 11.9423,153.2619 11.8451,153.5152 C11.7966,153.6418 11.7485,153.7687 11.7009,153.8958 " fill="none" id="Image-backto-UI" style="stroke:#181818;stroke-width:1.0;stroke-dasharray:7.0,7.0;"/><polygon fill="#181818" points="1998.77,69.874,1989.7807,65.8501,1993.77,69.8607,1989.7594,73.85,1998.77,69.874" style="stroke:#181818;stroke-width:1.0;"/></g><!--reverse link Image to Board--><g id="link_Image_Board"><path codeLine="103" d="M1993.6131,93.0431 C1908.5531,137.1321 1700.67,238.022 1508,276 C1483.63,280.803 1082.86,272.207 1061,284 C1041.885,294.3135 1028.02,314.339 1018.8675,332.0179 C1017.7234,334.2277 1016.653,336.4009 1015.6552,338.5139 C1015.1562,339.5704 1014.6755,340.6118 1014.2127,341.6353 C1013.9813,342.147 1013.7544,342.6542 1013.532,343.1565 C1013.4209,343.4077 1013.3108,343.6577 1013.2018,343.9064 C1013.1473,344.0307 1013.0932,344.1548 1013.0392,344.2785 " fill="none" id="Image-backto-Board" style="stroke:#181818;stroke-width:1.0;stroke-dasharray:7.0,7.0;"/><polygon fill="#181818" points="1998.94,90.282,1989.1089,90.8724,1994.5009,92.5829,1992.7903,97.975,1998.94,90.282" style="stroke:#181818;stroke-width:1.0;"/></g><!--reverse link Image to Player--><g id="link_Image_Player"><path codeLine="104" d="M2018.6651,98.2609 C1996.3901,132.6054 1956.445,194.187 1918.305,252.9869 C1899.235,282.3868 1881.4325,309.8328 1868.1481,330.3141 C1864.827,335.4345 1861.7883,340.1195 1859.0828,344.2909 C1857.73,346.3767 1856.4605,348.334 1855.2807,350.1531 C1854.6908,351.0627 1854.1233,351.9377 1853.579,352.777 C1853.4429,352.9868 1853.3083,353.1943 1853.1751,353.3997 " fill="none" id="Image-backto-Player" style="stroke:#181818;stroke-width:1.0;stroke-dasharray:7.0,7.0;"/><polygon fill="#181818" points="2021.93,93.227,2013.6767,98.6013,2019.2093,97.4219,2020.3886,102.9545,2021.93,93.227" style="stroke:#181818;stroke-width:1.0;"/></g><!--reverse link Rules to SingletonGameHandler--><g id="link_Rules_SingletonGameHandler"><path codeLine="106" d="M2163.8899,102.441 C2191.4399,158.671 2251.97,282.236 2279.62,338.689 " fill="none" id="Rules-backto-SingletonGameHandler" style="stroke:#181818;stroke-width:1.0;stroke-dasharray:7.0,7.0;"/><polygon fill="#181818" points="2161.25,97.053,2161.6178,106.895,2163.4499,101.543,2168.8019,103.3751,2161.25,97.053" style="stroke:#181818;stroke-width:1.0;"/></g><!--reverse link XmlReader to SingletonNobleHandler--><g id="link_XmlReader_SingletonNobleHandler"><path codeLine="108" d="M2334.796,99.9262 C2399.906,135.1862 2504.34,199.559 2573,284 C2625.35,348.374 2662.46,440.491 2678.75,485.764 " fill="none" id="XmlReader-backto-SingletonNobleHandler" style="stroke:#181818;stroke-width:1.0;stroke-dasharray:7.0,7.0;"/><polygon fill="#181818" points="2329.52,97.069,2335.5292,104.8722,2333.9167,99.45,2339.3388,97.8375,2329.52,97.069" style="stroke:#181818;stroke-width:1.0;"/></g><!--reverse link XmlReader to GameFactory--><g id="link_XmlReader_GameFactory"><path codeLine="109" d="M2299.1759,101.9077 C2340.0159,158.1377 2430.16,282.236 2471.16,338.689 " fill="none" id="XmlReader-backto-GameFactory" style="stroke:#181818;stroke-width:1.0;stroke-dasharray:7.0,7.0;"/><polygon fill="#181818" points="2295.65,97.053,2297.7025,106.6856,2298.5883,101.0985,2304.1754,101.9844,2295.65,97.053" style="stroke:#181818;stroke-width:1.0;"/></g><!--SRC=[dLPRQzim57xNhn1-3CGitSgWX42QRfrXAoObRA-QhHbHMJAIir7Q_lT9iYGa-PAnF8JudE_Sp_cS3bLFgC4mkqSj_ieRKcNm1K3rmUpSma_gQr_rX3Fu0j-ClA98IdZBaQXJ6MeIoM4CkXFeJqaeJiGw_6TKzLmym-qMoXxrf8AxNG9x9AoXkETCuxyWLbCi3Dx9GnDVmJrkMomrpeZclJxmd_IYsy6cfEXPWMBXlfZpN0hoMrNTB7f_0w1pypZrX4etYy5PqMfD7E1ufaDbSntxqT8ZHhMD686YS4KSwrOf6i7FhFvEwWRtfs9Yj2FXqEYHk62_k6YHNgDlM4eLS0Jn_J6BDQy-pNRuiQEOrLpSdJ4r60Fo1Hg_hiPaZwCrJNH1mA1utgfeFPv7b5X8pXXg5Z17hBmG4PzIclUmP-F41_bXDhvHgtd81VM3Eg85TSa9w-MiEh0qkwJFdw_NC7kNvrVNMN1v07XsoOTgvt07hzn4YaDab0My181db9NMhpApcW1CKiNAkbQvBWEIX1V0xpFFQGiecnQyWJMHdUwVsJgvOA8gtNYhdk-b90txrwmjFTr04qji_jFkQjfkF25bqUWVAb7OaUef7BdrkNrLLliYc4n4joQN3xvWfdLomaqyPNi0F19w6fhO931Y6kSmu9WWnuXMNB-I-rz2gsLrvtB1QPhO1VWKgQeZz7pcTkWwirnjbQvYUtskLwgL2QcvvhbqKhrB9AGnrTuHyOK3qt4YvffMMjuooezXZX4nkVEpjcFTn6Ox5q5z8uX7hDUlkuat8G33ctYRvr0zXG-MBIAH2snVrKeuTLC016_g41CUIO89_ZJz1G00]--></g></svg>