<?xml version="1.0" encoding="us-ascii" standalone="no"?><svg xmlns="http://www.w3.org/2000/svg" xmlns:xlink="http://www.w3.org/1999/xlink" contentStyleType="text/css" height="685px" preserveAspectRatio="none" style="width:2054px;height:685px;background:#FFFFFF;" version="1.1" viewBox="0 0 2054 685" width="2054px" zoomAndPan="magnify"><defs/><g><!--cluster GameLogic--><g id="cluster_GameLogic"><path d="M1206.5,579.484 L1296.5,579.484 A3.75,3.75 0 0 1 1299,581.984 L1306,601.7809 L1581.5,601.7809 A2.5,2.5 0 0 1 1584,604.2809 L1584,675.984 A2.5,2.5 0 0 1 1581.5,678.484 L1206.5,678.484 A2.5,2.5 0 0 1 1204,675.984 L1204,581.984 A2.5,2.5 0 0 1 1206.5,579.484 " fill="none" style="stroke:#000000;stroke-width:1.5;"/><line style="stroke:#000000;stroke-width:1.5;" x1="1204" x2="1306" y1="601.7809" y2="601.7809"/><text fill="#000000" font-family="sans-serif" font-size="14" font-weight="bold" lengthAdjust="spacing" textLength="89" x="1208" y="594.4791">GameLogic</text></g><!--cluster Utils--><g id="cluster_Utils"><path d="M1941.5,85.484 L1980.5,85.484 A3.75,3.75 0 0 1 1983,87.984 L1990,107.7809 L2044.5,107.7809 A2.5,2.5 0 0 1 2047,110.2809 L2047,181.984 A2.5,2.5 0 0 1 2044.5,184.484 L1941.5,184.484 A2.5,2.5 0 0 1 1939,181.984 L1939,87.984 A2.5,2.5 0 0 1 1941.5,85.484 " fill="none" style="stroke:#000000;stroke-width:1.5;"/><line style="stroke:#000000;stroke-width:1.5;" x1="1939" x2="1990" y1="107.7809" y2="107.7809"/><text fill="#000000" font-family="sans-serif" font-size="14" font-weight="bold" lengthAdjust="spacing" textLength="38" x="1943" y="100.4791">Utils</text></g><!--cluster UI--><g id="cluster_UI"><path d="M8.5,77.484 L25.5,77.484 A3.75,3.75 0 0 1 28,79.984 L35,99.7809 L1904.5,99.7809 A2.5,2.5 0 0 1 1907,102.2809 L1907,544.984 A2.5,2.5 0 0 1 1904.5,547.484 L8.5,547.484 A2.5,2.5 0 0 1 6,544.984 L6,79.984 A2.5,2.5 0 0 1 8.5,77.484 " fill="none" style="stroke:#000000;stroke-width:1.5;"/><line style="stroke:#000000;stroke-width:1.5;" x1="6" x2="35" y1="99.7809" y2="99.7809"/><text fill="#000000" font-family="sans-serif" font-size="14" font-weight="bold" lengthAdjust="spacing" textLength="16" x="10" y="92.4791">UI</text></g><!--cluster Board--><g id="cluster_Board"><path d="M440.5,216.484 L489.5,216.484 A3.75,3.75 0 0 1 492,218.984 L499,238.7809 L1010.5,238.7809 A2.5,2.5 0 0 1 1013,241.2809 L1013,436.984 A2.5,2.5 0 0 1 1010.5,439.484 L440.5,439.484 A2.5,2.5 0 0 1 438,436.984 L438,218.984 A2.5,2.5 0 0 1 440.5,216.484 " fill="none" style="stroke:#000000;stroke-width:1.5;"/><line style="stroke:#000000;stroke-width:1.5;" x1="438" x2="499" y1="238.7809" y2="238.7809"/><text fill="#000000" font-family="sans-serif" font-size="14" font-weight="bold" lengthAdjust="spacing" textLength="48" x="442" y="231.4791">Board</text></g><!--cluster Player--><g id="cluster_Player"><path d="M1068.5,216.484 L1119.5,216.484 A3.75,3.75 0 0 1 1122,218.984 L1129,238.7809 L1864.5,238.7809 A2.5,2.5 0 0 1 1867,241.2809 L1867,328.984 A2.5,2.5 0 0 1 1864.5,331.484 L1068.5,331.484 A2.5,2.5 0 0 1 1066,328.984 L1066,218.984 A2.5,2.5 0 0 1 1068.5,216.484 " fill="none" style="stroke:#000000;stroke-width:1.5;"/><line style="stroke:#000000;stroke-width:1.5;" x1="1066" x2="1129" y1="238.7809" y2="238.7809"/><text fill="#000000" font-family="sans-serif" font-size="14" font-weight="bold" lengthAdjust="spacing" textLength="50" x="1070" y="231.4791">Player</text></g><!--class Card--><g id="elem_Card"><rect fill="#F1F1F1" height="48" id="Card" rx="2.5" ry="2.5" style="stroke:#181818;stroke-width:0.5;" width="65" x="1391.5" y="614.484"/><ellipse cx="1406.5" cy="630.484" fill="#ADD1B2" rx="11" ry="11" style="stroke:#181818;stroke-width:1.0;"/><path d="M1408.8438,626.1559 C1407.9063,625.7184 1407.3125,625.5778 1406.4375,625.5778 C1403.8125,625.5778 1401.8125,627.6559 1401.8125,630.3746 L1401.8125,631.4996 C1401.8125,634.0778 1403.9219,635.9684 1406.8125,635.9684 C1408.0313,635.9684 1409.1875,635.6715 1409.9375,635.1246 C1410.5156,634.7184 1410.8438,634.2653 1410.8438,633.8746 C1410.8438,633.4215 1410.4531,633.0309 1409.9844,633.0309 C1409.7656,633.0309 1409.5625,633.109 1409.375,633.2965 C1408.9219,633.7809 1408.9219,633.7809 1408.7344,633.8746 C1408.3125,634.1403 1407.625,634.2653 1406.8594,634.2653 C1404.8125,634.2653 1403.5156,633.1715 1403.5156,631.4684 L1403.5156,630.3746 C1403.5156,628.5934 1404.7656,627.2809 1406.5,627.2809 C1407.0781,627.2809 1407.6875,627.4371 1408.1563,627.6871 C1408.6406,627.9684 1408.8125,628.1871 1408.9063,628.5934 C1408.9688,628.9996 1409,629.1246 1409.1406,629.2496 C1409.2813,629.3903 1409.5156,629.4996 1409.7344,629.4996 C1410,629.4996 1410.2656,629.359 1410.4375,629.1403 C1410.5469,628.984 1410.5781,628.7965 1410.5781,628.3746 L1410.5781,626.9528 C1410.5781,626.5153 1410.5625,626.3903 1410.4688,626.234 C1410.3125,625.9684 1410.0313,625.8278 1409.7344,625.8278 C1409.4375,625.8278 1409.2344,625.9215 1409.0156,626.234 L1408.8438,626.1559 Z " fill="#000000"/><text fill="#000000" font-family="sans-serif" font-size="14" lengthAdjust="spacing" textLength="33" x="1420.5" y="635.3307">Card</text><line style="stroke:#181818;stroke-width:0.5;" x1="1392.5" x2="1455.5" y1="646.484" y2="646.484"/><line style="stroke:#181818;stroke-width:0.5;" x1="1392.5" x2="1455.5" y1="654.484" y2="654.484"/></g><!--class EnumGemmes--><g id="elem_EnumGemmes"><rect fill="#F1F1F1" height="48" id="EnumGemmes" rx="2.5" ry="2.5" style="stroke:#181818;stroke-width:0.5;" width="136" x="1220" y="614.484"/><ellipse cx="1235" cy="630.484" fill="#ADD1B2" rx="11" ry="11" style="stroke:#181818;stroke-width:1.0;"/><path d="M1237.3438,626.1559 C1236.4063,625.7184 1235.8125,625.5778 1234.9375,625.5778 C1232.3125,625.5778 1230.3125,627.6559 1230.3125,630.3746 L1230.3125,631.4996 C1230.3125,634.0778 1232.4219,635.9684 1235.3125,635.9684 C1236.5313,635.9684 1237.6875,635.6715 1238.4375,635.1246 C1239.0156,634.7184 1239.3438,634.2653 1239.3438,633.8746 C1239.3438,633.4215 1238.9531,633.0309 1238.4844,633.0309 C1238.2656,633.0309 1238.0625,633.109 1237.875,633.2965 C1237.4219,633.7809 1237.4219,633.7809 1237.2344,633.8746 C1236.8125,634.1403 1236.125,634.2653 1235.3594,634.2653 C1233.3125,634.2653 1232.0156,633.1715 1232.0156,631.4684 L1232.0156,630.3746 C1232.0156,628.5934 1233.2656,627.2809 1235,627.2809 C1235.5781,627.2809 1236.1875,627.4371 1236.6563,627.6871 C1237.1406,627.9684 1237.3125,628.1871 1237.4063,628.5934 C1237.4688,628.9996 1237.5,629.1246 1237.6406,629.2496 C1237.7813,629.3903 1238.0156,629.4996 1238.2344,629.4996 C1238.5,629.4996 1238.7656,629.359 1238.9375,629.1403 C1239.0469,628.984 1239.0781,628.7965 1239.0781,628.3746 L1239.0781,626.9528 C1239.0781,626.5153 1239.0625,626.3903 1238.9688,626.234 C1238.8125,625.9684 1238.5313,625.8278 1238.2344,625.8278 C1237.9375,625.8278 1237.7344,625.9215 1237.5156,626.234 L1237.3438,626.1559 Z " fill="#000000"/><text fill="#000000" font-family="sans-serif" font-size="14" lengthAdjust="spacing" textLength="104" x="1249" y="635.3307">EnumGemmes</text><line style="stroke:#181818;stroke-width:0.5;" x1="1221" x2="1355" y1="646.484" y2="646.484"/><line style="stroke:#181818;stroke-width:0.5;" x1="1221" x2="1355" y1="654.484" y2="654.484"/></g><!--class Player--><g id="elem_Player"><rect fill="#F1F1F1" height="48" id="Player" rx="2.5" ry="2.5" style="stroke:#181818;stroke-width:0.5;" width="76" x="1492" y="614.484"/><ellipse cx="1507" cy="630.484" fill="#ADD1B2" rx="11" ry="11" style="stroke:#181818;stroke-width:1.0;"/><path d="M1509.3438,626.1559 C1508.4063,625.7184 1507.8125,625.5778 1506.9375,625.5778 C1504.3125,625.5778 1502.3125,627.6559 1502.3125,630.3746 L1502.3125,631.4996 C1502.3125,634.0778 1504.4219,635.9684 1507.3125,635.9684 C1508.5313,635.9684 1509.6875,635.6715 1510.4375,635.1246 C1511.0156,634.7184 1511.3438,634.2653 1511.3438,633.8746 C1511.3438,633.4215 1510.9531,633.0309 1510.4844,633.0309 C1510.2656,633.0309 1510.0625,633.109 1509.875,633.2965 C1509.4219,633.7809 1509.4219,633.7809 1509.2344,633.8746 C1508.8125,634.1403 1508.125,634.2653 1507.3594,634.2653 C1505.3125,634.2653 1504.0156,633.1715 1504.0156,631.4684 L1504.0156,630.3746 C1504.0156,628.5934 1505.2656,627.2809 1507,627.2809 C1507.5781,627.2809 1508.1875,627.4371 1508.6563,627.6871 C1509.1406,627.9684 1509.3125,628.1871 1509.4063,628.5934 C1509.4688,628.9996 1509.5,629.1246 1509.6406,629.2496 C1509.7813,629.3903 1510.0156,629.4996 1510.2344,629.4996 C1510.5,629.4996 1510.7656,629.359 1510.9375,629.1403 C1511.0469,628.984 1511.0781,628.7965 1511.0781,628.3746 L1511.0781,626.9528 C1511.0781,626.5153 1511.0625,626.3903 1510.9688,626.234 C1510.8125,625.9684 1510.5313,625.8278 1510.2344,625.8278 C1509.9375,625.8278 1509.7344,625.9215 1509.5156,626.234 L1509.3438,626.1559 Z " fill="#000000"/><text fill="#000000" font-family="sans-serif" font-size="14" lengthAdjust="spacing" textLength="44" x="1521" y="635.3307">Player</text><line style="stroke:#181818;stroke-width:0.5;" x1="1493" x2="1567" y1="646.484" y2="646.484"/><line style="stroke:#181818;stroke-width:0.5;" x1="1493" x2="1567" y1="654.484" y2="654.484"/></g><!--class Image--><g id="elem_Image"><rect codeLine="5" fill="#F1F1F1" height="48" id="Image" rx="2.5" ry="2.5" style="stroke:#181818;stroke-width:0.5;" width="76" x="1955" y="120.484"/><ellipse cx="1970" cy="136.484" fill="#ADD1B2" rx="11" ry="11" style="stroke:#181818;stroke-width:1.0;"/><path d="M1972.3438,132.1559 C1971.4063,131.7184 1970.8125,131.5778 1969.9375,131.5778 C1967.3125,131.5778 1965.3125,133.6559 1965.3125,136.3746 L1965.3125,137.4996 C1965.3125,140.0778 1967.4219,141.9684 1970.3125,141.9684 C1971.5313,141.9684 1972.6875,141.6715 1973.4375,141.1246 C1974.0156,140.7184 1974.3438,140.2653 1974.3438,139.8746 C1974.3438,139.4215 1973.9531,139.0309 1973.4844,139.0309 C1973.2656,139.0309 1973.0625,139.109 1972.875,139.2965 C1972.4219,139.7809 1972.4219,139.7809 1972.2344,139.8746 C1971.8125,140.1403 1971.125,140.2653 1970.3594,140.2653 C1968.3125,140.2653 1967.0156,139.1715 1967.0156,137.4684 L1967.0156,136.3746 C1967.0156,134.5934 1968.2656,133.2809 1970,133.2809 C1970.5781,133.2809 1971.1875,133.4371 1971.6563,133.6871 C1972.1406,133.9684 1972.3125,134.1871 1972.4063,134.5934 C1972.4688,134.9996 1972.5,135.1246 1972.6406,135.2496 C1972.7813,135.3903 1973.0156,135.4996 1973.2344,135.4996 C1973.5,135.4996 1973.7656,135.359 1973.9375,135.1403 C1974.0469,134.984 1974.0781,134.7965 1974.0781,134.3746 L1974.0781,132.9528 C1974.0781,132.5153 1974.0625,132.3903 1973.9688,132.234 C1973.8125,131.9684 1973.5313,131.8278 1973.2344,131.8278 C1972.9375,131.8278 1972.7344,131.9215 1972.5156,132.234 L1972.3438,132.1559 Z " fill="#000000"/><text fill="#000000" font-family="sans-serif" font-size="14" lengthAdjust="spacing" textLength="44" x="1984" y="141.3307">Image</text><line style="stroke:#181818;stroke-width:0.5;" x1="1956" x2="2030" y1="152.484" y2="152.484"/><line style="stroke:#181818;stroke-width:0.5;" x1="1956" x2="2030" y1="160.484" y2="160.484"/></g><!--class BackgroundWidgetUI--><g id="elem_BackgroundWidgetUI"><rect codeLine="9" fill="#F1F1F1" height="48" id="BackgroundWidgetUI" rx="2.5" ry="2.5" style="stroke:#181818;stroke-width:0.5;" width="182" x="1224" y="367.484"/><ellipse cx="1239" cy="383.484" fill="#ADD1B2" rx="11" ry="11" style="stroke:#181818;stroke-width:1.0;"/><path d="M1241.3438,379.1559 C1240.4063,378.7184 1239.8125,378.5778 1238.9375,378.5778 C1236.3125,378.5778 1234.3125,380.6559 1234.3125,383.3746 L1234.3125,384.4996 C1234.3125,387.0778 1236.4219,388.9684 1239.3125,388.9684 C1240.5313,388.9684 1241.6875,388.6715 1242.4375,388.1246 C1243.0156,387.7184 1243.3438,387.2653 1243.3438,386.8746 C1243.3438,386.4215 1242.9531,386.0309 1242.4844,386.0309 C1242.2656,386.0309 1242.0625,386.109 1241.875,386.2965 C1241.4219,386.7809 1241.4219,386.7809 1241.2344,386.8746 C1240.8125,387.1403 1240.125,387.2653 1239.3594,387.2653 C1237.3125,387.2653 1236.0156,386.1715 1236.0156,384.4684 L1236.0156,383.3746 C1236.0156,381.5934 1237.2656,380.2809 1239,380.2809 C1239.5781,380.2809 1240.1875,380.4371 1240.6563,380.6871 C1241.1406,380.9684 1241.3125,381.1871 1241.4063,381.5934 C1241.4688,381.9996 1241.5,382.1246 1241.6406,382.2496 C1241.7813,382.3903 1242.0156,382.4996 1242.2344,382.4996 C1242.5,382.4996 1242.7656,382.359 1242.9375,382.1403 C1243.0469,381.984 1243.0781,381.7965 1243.0781,381.3746 L1243.0781,379.9528 C1243.0781,379.5153 1243.0625,379.3903 1242.9688,379.234 C1242.8125,378.9684 1242.5313,378.8278 1242.2344,378.8278 C1241.9375,378.8278 1241.7344,378.9215 1241.5156,379.234 L1241.3438,379.1559 Z " fill="#000000"/><text fill="#000000" font-family="sans-serif" font-size="14" lengthAdjust="spacing" textLength="150" x="1253" y="388.3307">BackgroundWidgetUI</text><line style="stroke:#181818;stroke-width:0.5;" x1="1225" x2="1405" y1="399.484" y2="399.484"/><line style="stroke:#181818;stroke-width:0.5;" x1="1225" x2="1405" y1="407.484" y2="407.484"/></g><!--class CardUI--><g id="elem_CardUI"><rect codeLine="10" fill="#F1F1F1" height="48" id="CardUI" rx="2.5" ry="2.5" style="stroke:#181818;stroke-width:0.5;" width="78" x="1074" y="367.484"/><ellipse cx="1089" cy="383.484" fill="#ADD1B2" rx="11" ry="11" style="stroke:#181818;stroke-width:1.0;"/><path d="M1091.3438,379.1559 C1090.4063,378.7184 1089.8125,378.5778 1088.9375,378.5778 C1086.3125,378.5778 1084.3125,380.6559 1084.3125,383.3746 L1084.3125,384.4996 C1084.3125,387.0778 1086.4219,388.9684 1089.3125,388.9684 C1090.5313,388.9684 1091.6875,388.6715 1092.4375,388.1246 C1093.0156,387.7184 1093.3438,387.2653 1093.3438,386.8746 C1093.3438,386.4215 1092.9531,386.0309 1092.4844,386.0309 C1092.2656,386.0309 1092.0625,386.109 1091.875,386.2965 C1091.4219,386.7809 1091.4219,386.7809 1091.2344,386.8746 C1090.8125,387.1403 1090.125,387.2653 1089.3594,387.2653 C1087.3125,387.2653 1086.0156,386.1715 1086.0156,384.4684 L1086.0156,383.3746 C1086.0156,381.5934 1087.2656,380.2809 1089,380.2809 C1089.5781,380.2809 1090.1875,380.4371 1090.6563,380.6871 C1091.1406,380.9684 1091.3125,381.1871 1091.4063,381.5934 C1091.4688,381.9996 1091.5,382.1246 1091.6406,382.2496 C1091.7813,382.3903 1092.0156,382.4996 1092.2344,382.4996 C1092.5,382.4996 1092.7656,382.359 1092.9375,382.1403 C1093.0469,381.984 1093.0781,381.7965 1093.0781,381.3746 L1093.0781,379.9528 C1093.0781,379.5153 1093.0625,379.3903 1092.9688,379.234 C1092.8125,378.9684 1092.5313,378.8278 1092.2344,378.8278 C1091.9375,378.8278 1091.7344,378.9215 1091.5156,379.234 L1091.3438,379.1559 Z " fill="#000000"/><text fill="#000000" font-family="sans-serif" font-size="14" lengthAdjust="spacing" textLength="46" x="1103" y="388.3307">CardUI</text><line style="stroke:#181818;stroke-width:0.5;" x1="1075" x2="1151" y1="399.484" y2="399.484"/><line style="stroke:#181818;stroke-width:0.5;" x1="1075" x2="1151" y1="407.484" y2="407.484"/></g><!--class GemmesUI--><g id="elem_GemmesUI"><rect codeLine="11" fill="#F1F1F1" height="48" id="GemmesUI" rx="2.5" ry="2.5" style="stroke:#181818;stroke-width:0.5;" width="109" x="1133.5" y="475.484"/><ellipse cx="1148.5" cy="491.484" fill="#ADD1B2" rx="11" ry="11" style="stroke:#181818;stroke-width:1.0;"/><path d="M1150.8438,487.1559 C1149.9063,486.7184 1149.3125,486.5778 1148.4375,486.5778 C1145.8125,486.5778 1143.8125,488.6559 1143.8125,491.3746 L1143.8125,492.4996 C1143.8125,495.0778 1145.9219,496.9684 1148.8125,496.9684 C1150.0313,496.9684 1151.1875,496.6715 1151.9375,496.1246 C1152.5156,495.7184 1152.8438,495.2653 1152.8438,494.8746 C1152.8438,494.4215 1152.4531,494.0309 1151.9844,494.0309 C1151.7656,494.0309 1151.5625,494.109 1151.375,494.2965 C1150.9219,494.7809 1150.9219,494.7809 1150.7344,494.8746 C1150.3125,495.1403 1149.625,495.2653 1148.8594,495.2653 C1146.8125,495.2653 1145.5156,494.1715 1145.5156,492.4684 L1145.5156,491.3746 C1145.5156,489.5934 1146.7656,488.2809 1148.5,488.2809 C1149.0781,488.2809 1149.6875,488.4371 1150.1563,488.6871 C1150.6406,488.9684 1150.8125,489.1871 1150.9063,489.5934 C1150.9688,489.9996 1151,490.1246 1151.1406,490.2496 C1151.2813,490.3903 1151.5156,490.4996 1151.7344,490.4996 C1152,490.4996 1152.2656,490.359 1152.4375,490.1403 C1152.5469,489.984 1152.5781,489.7965 1152.5781,489.3746 L1152.5781,487.9528 C1152.5781,487.5153 1152.5625,487.3903 1152.4688,487.234 C1152.3125,486.9684 1152.0313,486.8278 1151.7344,486.8278 C1151.4375,486.8278 1151.2344,486.9215 1151.0156,487.234 L1150.8438,487.1559 Z " fill="#000000"/><text fill="#000000" font-family="sans-serif" font-size="14" lengthAdjust="spacing" textLength="77" x="1162.5" y="496.3307">GemmesUI</text><line style="stroke:#181818;stroke-width:0.5;" x1="1134.5" x2="1241.5" y1="507.484" y2="507.484"/><line style="stroke:#181818;stroke-width:0.5;" x1="1134.5" x2="1241.5" y1="515.484" y2="515.484"/></g><!--class InformationMessageUI--><g id="elem_InformationMessageUI"><rect codeLine="12" fill="#F1F1F1" height="48" id="InformationMessageUI" rx="2.5" ry="2.5" style="stroke:#181818;stroke-width:0.5;" width="191" x="38.5" y="259.484"/><ellipse cx="53.5" cy="275.484" fill="#ADD1B2" rx="11" ry="11" style="stroke:#181818;stroke-width:1.0;"/><path d="M55.8438,271.1559 C54.9063,270.7184 54.3125,270.5778 53.4375,270.5778 C50.8125,270.5778 48.8125,272.6559 48.8125,275.3746 L48.8125,276.4996 C48.8125,279.0778 50.9219,280.9684 53.8125,280.9684 C55.0313,280.9684 56.1875,280.6715 56.9375,280.1246 C57.5156,279.7184 57.8438,279.2653 57.8438,278.8746 C57.8438,278.4215 57.4531,278.0309 56.9844,278.0309 C56.7656,278.0309 56.5625,278.109 56.375,278.2965 C55.9219,278.7809 55.9219,278.7809 55.7344,278.8746 C55.3125,279.1403 54.625,279.2653 53.8594,279.2653 C51.8125,279.2653 50.5156,278.1715 50.5156,276.4684 L50.5156,275.3746 C50.5156,273.5934 51.7656,272.2809 53.5,272.2809 C54.0781,272.2809 54.6875,272.4371 55.1563,272.6871 C55.6406,272.9684 55.8125,273.1871 55.9063,273.5934 C55.9688,273.9996 56,274.1246 56.1406,274.2496 C56.2813,274.3903 56.5156,274.4996 56.7344,274.4996 C57,274.4996 57.2656,274.359 57.4375,274.1403 C57.5469,273.984 57.5781,273.7965 57.5781,273.3746 L57.5781,271.9528 C57.5781,271.5153 57.5625,271.3903 57.4688,271.234 C57.3125,270.9684 57.0313,270.8278 56.7344,270.8278 C56.4375,270.8278 56.2344,270.9215 56.0156,271.234 L55.8438,271.1559 Z " fill="#000000"/><text fill="#000000" font-family="sans-serif" font-size="14" lengthAdjust="spacing" textLength="159" x="67.5" y="280.3307">InformationMessageUI</text><line style="stroke:#181818;stroke-width:0.5;" x1="39.5" x2="228.5" y1="291.484" y2="291.484"/><line style="stroke:#181818;stroke-width:0.5;" x1="39.5" x2="228.5" y1="299.484" y2="299.484"/></g><!--class PrivilegeBoardUI--><g id="elem_PrivilegeBoardUI"><rect codeLine="13" fill="#F1F1F1" height="48" id="PrivilegeBoardUI" rx="2.5" ry="2.5" style="stroke:#181818;stroke-width:0.5;" width="149" x="264.5" y="259.484"/><ellipse cx="279.5" cy="275.484" fill="#ADD1B2" rx="11" ry="11" style="stroke:#181818;stroke-width:1.0;"/><path d="M281.8438,271.1559 C280.9063,270.7184 280.3125,270.5778 279.4375,270.5778 C276.8125,270.5778 274.8125,272.6559 274.8125,275.3746 L274.8125,276.4996 C274.8125,279.0778 276.9219,280.9684 279.8125,280.9684 C281.0313,280.9684 282.1875,280.6715 282.9375,280.1246 C283.5156,279.7184 283.8438,279.2653 283.8438,278.8746 C283.8438,278.4215 283.4531,278.0309 282.9844,278.0309 C282.7656,278.0309 282.5625,278.109 282.375,278.2965 C281.9219,278.7809 281.9219,278.7809 281.7344,278.8746 C281.3125,279.1403 280.625,279.2653 279.8594,279.2653 C277.8125,279.2653 276.5156,278.1715 276.5156,276.4684 L276.5156,275.3746 C276.5156,273.5934 277.7656,272.2809 279.5,272.2809 C280.0781,272.2809 280.6875,272.4371 281.1563,272.6871 C281.6406,272.9684 281.8125,273.1871 281.9063,273.5934 C281.9688,273.9996 282,274.1246 282.1406,274.2496 C282.2813,274.3903 282.5156,274.4996 282.7344,274.4996 C283,274.4996 283.2656,274.359 283.4375,274.1403 C283.5469,273.984 283.5781,273.7965 283.5781,273.3746 L283.5781,271.9528 C283.5781,271.5153 283.5625,271.3903 283.4688,271.234 C283.3125,270.9684 283.0313,270.8278 282.7344,270.8278 C282.4375,270.8278 282.2344,270.9215 282.0156,271.234 L281.8438,271.1559 Z " fill="#000000"/><text fill="#000000" font-family="sans-serif" font-size="14" lengthAdjust="spacing" textLength="117" x="293.5" y="280.3307">PrivilegeBoardUI</text><line style="stroke:#181818;stroke-width:0.5;" x1="265.5" x2="412.5" y1="291.484" y2="291.484"/><line style="stroke:#181818;stroke-width:0.5;" x1="265.5" x2="412.5" y1="299.484" y2="299.484"/></g><!--class PrivilegeUI--><g id="elem_PrivilegeUI"><rect codeLine="14" fill="#F1F1F1" height="48" id="PrivilegeUI" rx="2.5" ry="2.5" style="stroke:#181818;stroke-width:0.5;" width="107" x="285.5" y="367.484"/><ellipse cx="300.5" cy="383.484" fill="#ADD1B2" rx="11" ry="11" style="stroke:#181818;stroke-width:1.0;"/><path d="M302.8438,379.1559 C301.9063,378.7184 301.3125,378.5778 300.4375,378.5778 C297.8125,378.5778 295.8125,380.6559 295.8125,383.3746 L295.8125,384.4996 C295.8125,387.0778 297.9219,388.9684 300.8125,388.9684 C302.0313,388.9684 303.1875,388.6715 303.9375,388.1246 C304.5156,387.7184 304.8438,387.2653 304.8438,386.8746 C304.8438,386.4215 304.4531,386.0309 303.9844,386.0309 C303.7656,386.0309 303.5625,386.109 303.375,386.2965 C302.9219,386.7809 302.9219,386.7809 302.7344,386.8746 C302.3125,387.1403 301.625,387.2653 300.8594,387.2653 C298.8125,387.2653 297.5156,386.1715 297.5156,384.4684 L297.5156,383.3746 C297.5156,381.5934 298.7656,380.2809 300.5,380.2809 C301.0781,380.2809 301.6875,380.4371 302.1563,380.6871 C302.6406,380.9684 302.8125,381.1871 302.9063,381.5934 C302.9688,381.9996 303,382.1246 303.1406,382.2496 C303.2813,382.3903 303.5156,382.4996 303.7344,382.4996 C304,382.4996 304.2656,382.359 304.4375,382.1403 C304.5469,381.984 304.5781,381.7965 304.5781,381.3746 L304.5781,379.9528 C304.5781,379.5153 304.5625,379.3903 304.4688,379.234 C304.3125,378.9684 304.0313,378.8278 303.7344,378.8278 C303.4375,378.8278 303.2344,378.9215 303.0156,379.234 L302.8438,379.1559 Z " fill="#000000"/><text fill="#000000" font-family="sans-serif" font-size="14" lengthAdjust="spacing" textLength="75" x="314.5" y="388.3307">PrivilegeUI</text><line style="stroke:#181818;stroke-width:0.5;" x1="286.5" x2="391.5" y1="399.484" y2="399.484"/><line style="stroke:#181818;stroke-width:0.5;" x1="286.5" x2="391.5" y1="407.484" y2="407.484"/></g><!--class SingletonSplendorDuel--><g id="elem_SingletonSplendorDuel"><rect codeLine="15" fill="#F1F1F1" height="48" id="SingletonSplendorDuel" rx="2.5" ry="2.5" style="stroke:#181818;stroke-width:0.5;" width="198" x="443" y="120.484"/><ellipse cx="458" cy="136.484" fill="#ADD1B2" rx="11" ry="11" style="stroke:#181818;stroke-width:1.0;"/><path d="M460.3438,132.1559 C459.4063,131.7184 458.8125,131.5778 457.9375,131.5778 C455.3125,131.5778 453.3125,133.6559 453.3125,136.3746 L453.3125,137.4996 C453.3125,140.0778 455.4219,141.9684 458.3125,141.9684 C459.5313,141.9684 460.6875,141.6715 461.4375,141.1246 C462.0156,140.7184 462.3438,140.2653 462.3438,139.8746 C462.3438,139.4215 461.9531,139.0309 461.4844,139.0309 C461.2656,139.0309 461.0625,139.109 460.875,139.2965 C460.4219,139.7809 460.4219,139.7809 460.2344,139.8746 C459.8125,140.1403 459.125,140.2653 458.3594,140.2653 C456.3125,140.2653 455.0156,139.1715 455.0156,137.4684 L455.0156,136.3746 C455.0156,134.5934 456.2656,133.2809 458,133.2809 C458.5781,133.2809 459.1875,133.4371 459.6563,133.6871 C460.1406,133.9684 460.3125,134.1871 460.4063,134.5934 C460.4688,134.9996 460.5,135.1246 460.6406,135.2496 C460.7813,135.3903 461.0156,135.4996 461.2344,135.4996 C461.5,135.4996 461.7656,135.359 461.9375,135.1403 C462.0469,134.984 462.0781,134.7965 462.0781,134.3746 L462.0781,132.9528 C462.0781,132.5153 462.0625,132.3903 461.9688,132.234 C461.8125,131.9684 461.5313,131.8278 461.2344,131.8278 C460.9375,131.8278 460.7344,131.9215 460.5156,132.234 L460.3438,132.1559 Z " fill="#000000"/><text fill="#000000" font-family="sans-serif" font-size="14" lengthAdjust="spacing" textLength="166" x="472" y="141.3307">SingletonSplendorDuel</text><line style="stroke:#181818;stroke-width:0.5;" x1="444" x2="640" y1="152.484" y2="152.484"/><line style="stroke:#181818;stroke-width:0.5;" x1="444" x2="640" y1="160.484" y2="160.484"/></g><!--class BoardCard--><g id="elem_BoardCard"><rect codeLine="18" fill="#F1F1F1" height="48" id="BoardCard" rx="2.5" ry="2.5" style="stroke:#181818;stroke-width:0.5;" width="107" x="862.5" y="259.484"/><ellipse cx="877.5" cy="275.484" fill="#ADD1B2" rx="11" ry="11" style="stroke:#181818;stroke-width:1.0;"/><path d="M879.8438,271.1559 C878.9063,270.7184 878.3125,270.5778 877.4375,270.5778 C874.8125,270.5778 872.8125,272.6559 872.8125,275.3746 L872.8125,276.4996 C872.8125,279.0778 874.9219,280.9684 877.8125,280.9684 C879.0313,280.9684 880.1875,280.6715 880.9375,280.1246 C881.5156,279.7184 881.8438,279.2653 881.8438,278.8746 C881.8438,278.4215 881.4531,278.0309 880.9844,278.0309 C880.7656,278.0309 880.5625,278.109 880.375,278.2965 C879.9219,278.7809 879.9219,278.7809 879.7344,278.8746 C879.3125,279.1403 878.625,279.2653 877.8594,279.2653 C875.8125,279.2653 874.5156,278.1715 874.5156,276.4684 L874.5156,275.3746 C874.5156,273.5934 875.7656,272.2809 877.5,272.2809 C878.0781,272.2809 878.6875,272.4371 879.1563,272.6871 C879.6406,272.9684 879.8125,273.1871 879.9063,273.5934 C879.9688,273.9996 880,274.1246 880.1406,274.2496 C880.2813,274.3903 880.5156,274.4996 880.7344,274.4996 C881,274.4996 881.2656,274.359 881.4375,274.1403 C881.5469,273.984 881.5781,273.7965 881.5781,273.3746 L881.5781,271.9528 C881.5781,271.5153 881.5625,271.3903 881.4688,271.234 C881.3125,270.9684 881.0313,270.8278 880.7344,270.8278 C880.4375,270.8278 880.2344,270.9215 880.0156,271.234 L879.8438,271.1559 Z " fill="#000000"/><text fill="#000000" font-family="sans-serif" font-size="14" lengthAdjust="spacing" textLength="75" x="891.5" y="280.3307">BoardCard</text><line style="stroke:#181818;stroke-width:0.5;" x1="863.5" x2="968.5" y1="291.484" y2="291.484"/><line style="stroke:#181818;stroke-width:0.5;" x1="863.5" x2="968.5" y1="299.484" y2="299.484"/></g><!--class BoardUI--><g id="elem_BoardUI"><rect codeLine="19" fill="#F1F1F1" height="48" id="BoardUI" rx="2.5" ry="2.5" style="stroke:#181818;stroke-width:0.5;" width="87" x="498.5" y="367.484"/><ellipse cx="513.5" cy="383.484" fill="#ADD1B2" rx="11" ry="11" style="stroke:#181818;stroke-width:1.0;"/><path d="M515.8438,379.1559 C514.9063,378.7184 514.3125,378.5778 513.4375,378.5778 C510.8125,378.5778 508.8125,380.6559 508.8125,383.3746 L508.8125,384.4996 C508.8125,387.0778 510.9219,388.9684 513.8125,388.9684 C515.0313,388.9684 516.1875,388.6715 516.9375,388.1246 C517.5156,387.7184 517.8438,387.2653 517.8438,386.8746 C517.8438,386.4215 517.4531,386.0309 516.9844,386.0309 C516.7656,386.0309 516.5625,386.109 516.375,386.2965 C515.9219,386.7809 515.9219,386.7809 515.7344,386.8746 C515.3125,387.1403 514.625,387.2653 513.8594,387.2653 C511.8125,387.2653 510.5156,386.1715 510.5156,384.4684 L510.5156,383.3746 C510.5156,381.5934 511.7656,380.2809 513.5,380.2809 C514.0781,380.2809 514.6875,380.4371 515.1563,380.6871 C515.6406,380.9684 515.8125,381.1871 515.9063,381.5934 C515.9688,381.9996 516,382.1246 516.1406,382.2496 C516.2813,382.3903 516.5156,382.4996 516.7344,382.4996 C517,382.4996 517.2656,382.359 517.4375,382.1403 C517.5469,381.984 517.5781,381.7965 517.5781,381.3746 L517.5781,379.9528 C517.5781,379.5153 517.5625,379.3903 517.4688,379.234 C517.3125,378.9684 517.0313,378.8278 516.7344,378.8278 C516.4375,378.8278 516.2344,378.9215 516.0156,379.234 L515.8438,379.1559 Z " fill="#000000"/><text fill="#000000" font-family="sans-serif" font-size="14" lengthAdjust="spacing" textLength="55" x="527.5" y="388.3307">BoardUI</text><line style="stroke:#181818;stroke-width:0.5;" x1="499.5" x2="584.5" y1="399.484" y2="399.484"/><line style="stroke:#181818;stroke-width:0.5;" x1="499.5" x2="584.5" y1="407.484" y2="407.484"/></g><!--class CompleteBoardUI--><g id="elem_CompleteBoardUI"><rect codeLine="20" fill="#F1F1F1" height="48" id="CompleteBoardUI" rx="2.5" ry="2.5" style="stroke:#181818;stroke-width:0.5;" width="159" x="462.5" y="259.484"/><ellipse cx="477.5" cy="275.484" fill="#ADD1B2" rx="11" ry="11" style="stroke:#181818;stroke-width:1.0;"/><path d="M479.8438,271.1559 C478.9063,270.7184 478.3125,270.5778 477.4375,270.5778 C474.8125,270.5778 472.8125,272.6559 472.8125,275.3746 L472.8125,276.4996 C472.8125,279.0778 474.9219,280.9684 477.8125,280.9684 C479.0313,280.9684 480.1875,280.6715 480.9375,280.1246 C481.5156,279.7184 481.8438,279.2653 481.8438,278.8746 C481.8438,278.4215 481.4531,278.0309 480.9844,278.0309 C480.7656,278.0309 480.5625,278.109 480.375,278.2965 C479.9219,278.7809 479.9219,278.7809 479.7344,278.8746 C479.3125,279.1403 478.625,279.2653 477.8594,279.2653 C475.8125,279.2653 474.5156,278.1715 474.5156,276.4684 L474.5156,275.3746 C474.5156,273.5934 475.7656,272.2809 477.5,272.2809 C478.0781,272.2809 478.6875,272.4371 479.1563,272.6871 C479.6406,272.9684 479.8125,273.1871 479.9063,273.5934 C479.9688,273.9996 480,274.1246 480.1406,274.2496 C480.2813,274.3903 480.5156,274.4996 480.7344,274.4996 C481,274.4996 481.2656,274.359 481.4375,274.1403 C481.5469,273.984 481.5781,273.7965 481.5781,273.3746 L481.5781,271.9528 C481.5781,271.5153 481.5625,271.3903 481.4688,271.234 C481.3125,270.9684 481.0313,270.8278 480.7344,270.8278 C480.4375,270.8278 480.2344,270.9215 480.0156,271.234 L479.8438,271.1559 Z " fill="#000000"/><text fill="#000000" font-family="sans-serif" font-size="14" lengthAdjust="spacing" textLength="127" x="491.5" y="280.3307">CompleteBoardUI</text><line style="stroke:#181818;stroke-width:0.5;" x1="463.5" x2="620.5" y1="291.484" y2="291.484"/><line style="stroke:#181818;stroke-width:0.5;" x1="463.5" x2="620.5" y1="299.484" y2="299.484"/></g><!--class PersonnageBoardUI--><g id="elem_PersonnageBoardUI"><rect codeLine="21" fill="#F1F1F1" height="48" id="PersonnageBoardUI" rx="2.5" ry="2.5" style="stroke:#181818;stroke-width:0.5;" width="171" x="656.5" y="259.484"/><ellipse cx="671.5" cy="275.484" fill="#ADD1B2" rx="11" ry="11" style="stroke:#181818;stroke-width:1.0;"/><path d="M673.8438,271.1559 C672.9063,270.7184 672.3125,270.5778 671.4375,270.5778 C668.8125,270.5778 666.8125,272.6559 666.8125,275.3746 L666.8125,276.4996 C666.8125,279.0778 668.9219,280.9684 671.8125,280.9684 C673.0313,280.9684 674.1875,280.6715 674.9375,280.1246 C675.5156,279.7184 675.8438,279.2653 675.8438,278.8746 C675.8438,278.4215 675.4531,278.0309 674.9844,278.0309 C674.7656,278.0309 674.5625,278.109 674.375,278.2965 C673.9219,278.7809 673.9219,278.7809 673.7344,278.8746 C673.3125,279.1403 672.625,279.2653 671.8594,279.2653 C669.8125,279.2653 668.5156,278.1715 668.5156,276.4684 L668.5156,275.3746 C668.5156,273.5934 669.7656,272.2809 671.5,272.2809 C672.0781,272.2809 672.6875,272.4371 673.1563,272.6871 C673.6406,272.9684 673.8125,273.1871 673.9063,273.5934 C673.9688,273.9996 674,274.1246 674.1406,274.2496 C674.2813,274.3903 674.5156,274.4996 674.7344,274.4996 C675,274.4996 675.2656,274.359 675.4375,274.1403 C675.5469,273.984 675.5781,273.7965 675.5781,273.3746 L675.5781,271.9528 C675.5781,271.5153 675.5625,271.3903 675.4688,271.234 C675.3125,270.9684 675.0313,270.8278 674.7344,270.8278 C674.4375,270.8278 674.2344,270.9215 674.0156,271.234 L673.8438,271.1559 Z " fill="#000000"/><text fill="#000000" font-family="sans-serif" font-size="14" lengthAdjust="spacing" textLength="139" x="685.5" y="280.3307">PersonnageBoardUI</text><line style="stroke:#181818;stroke-width:0.5;" x1="657.5" x2="826.5" y1="291.484" y2="291.484"/><line style="stroke:#181818;stroke-width:0.5;" x1="657.5" x2="826.5" y1="299.484" y2="299.484"/></g><!--class RemplirBoard--><g id="elem_RemplirBoard"><rect codeLine="22" fill="#F1F1F1" height="48" id="RemplirBoard" rx="2.5" ry="2.5" style="stroke:#181818;stroke-width:0.5;" width="131" x="620.5" y="367.484"/><ellipse cx="635.5" cy="383.484" fill="#ADD1B2" rx="11" ry="11" style="stroke:#181818;stroke-width:1.0;"/><path d="M637.8438,379.1559 C636.9063,378.7184 636.3125,378.5778 635.4375,378.5778 C632.8125,378.5778 630.8125,380.6559 630.8125,383.3746 L630.8125,384.4996 C630.8125,387.0778 632.9219,388.9684 635.8125,388.9684 C637.0313,388.9684 638.1875,388.6715 638.9375,388.1246 C639.5156,387.7184 639.8438,387.2653 639.8438,386.8746 C639.8438,386.4215 639.4531,386.0309 638.9844,386.0309 C638.7656,386.0309 638.5625,386.109 638.375,386.2965 C637.9219,386.7809 637.9219,386.7809 637.7344,386.8746 C637.3125,387.1403 636.625,387.2653 635.8594,387.2653 C633.8125,387.2653 632.5156,386.1715 632.5156,384.4684 L632.5156,383.3746 C632.5156,381.5934 633.7656,380.2809 635.5,380.2809 C636.0781,380.2809 636.6875,380.4371 637.1563,380.6871 C637.6406,380.9684 637.8125,381.1871 637.9063,381.5934 C637.9688,381.9996 638,382.1246 638.1406,382.2496 C638.2813,382.3903 638.5156,382.4996 638.7344,382.4996 C639,382.4996 639.2656,382.359 639.4375,382.1403 C639.5469,381.984 639.5781,381.7965 639.5781,381.3746 L639.5781,379.9528 C639.5781,379.5153 639.5625,379.3903 639.4688,379.234 C639.3125,378.9684 639.0313,378.8278 638.7344,378.8278 C638.4375,378.8278 638.2344,378.9215 638.0156,379.234 L637.8438,379.1559 Z " fill="#000000"/><text fill="#000000" font-family="sans-serif" font-size="14" lengthAdjust="spacing" textLength="99" x="649.5" y="388.3307">RemplirBoard</text><line style="stroke:#181818;stroke-width:0.5;" x1="621.5" x2="750.5" y1="399.484" y2="399.484"/><line style="stroke:#181818;stroke-width:0.5;" x1="621.5" x2="750.5" y1="407.484" y2="407.484"/></g><!--class PlayerCardUI--><g id="elem_PlayerCardUI"><rect codeLine="26" fill="#F1F1F1" height="48" id="PlayerCardUI" rx="2.5" ry="2.5" style="stroke:#181818;stroke-width:0.5;" width="122" x="1090" y="259.484"/><ellipse cx="1105" cy="275.484" fill="#ADD1B2" rx="11" ry="11" style="stroke:#181818;stroke-width:1.0;"/><path d="M1107.3438,271.1559 C1106.4063,270.7184 1105.8125,270.5778 1104.9375,270.5778 C1102.3125,270.5778 1100.3125,272.6559 1100.3125,275.3746 L1100.3125,276.4996 C1100.3125,279.0778 1102.4219,280.9684 1105.3125,280.9684 C1106.5313,280.9684 1107.6875,280.6715 1108.4375,280.1246 C1109.0156,279.7184 1109.3438,279.2653 1109.3438,278.8746 C1109.3438,278.4215 1108.9531,278.0309 1108.4844,278.0309 C1108.2656,278.0309 1108.0625,278.109 1107.875,278.2965 C1107.4219,278.7809 1107.4219,278.7809 1107.2344,278.8746 C1106.8125,279.1403 1106.125,279.2653 1105.3594,279.2653 C1103.3125,279.2653 1102.0156,278.1715 1102.0156,276.4684 L1102.0156,275.3746 C1102.0156,273.5934 1103.2656,272.2809 1105,272.2809 C1105.5781,272.2809 1106.1875,272.4371 1106.6563,272.6871 C1107.1406,272.9684 1107.3125,273.1871 1107.4063,273.5934 C1107.4688,273.9996 1107.5,274.1246 1107.6406,274.2496 C1107.7813,274.3903 1108.0156,274.4996 1108.2344,274.4996 C1108.5,274.4996 1108.7656,274.359 1108.9375,274.1403 C1109.0469,273.984 1109.0781,273.7965 1109.0781,273.3746 L1109.0781,271.9528 C1109.0781,271.5153 1109.0625,271.3903 1108.9688,271.234 C1108.8125,270.9684 1108.5313,270.8278 1108.2344,270.8278 C1107.9375,270.8278 1107.7344,270.9215 1107.5156,271.234 L1107.3438,271.1559 Z " fill="#000000"/><text fill="#000000" font-family="sans-serif" font-size="14" lengthAdjust="spacing" textLength="90" x="1119" y="280.3307">PlayerCardUI</text><line style="stroke:#181818;stroke-width:0.5;" x1="1091" x2="1211" y1="291.484" y2="291.484"/><line style="stroke:#181818;stroke-width:0.5;" x1="1091" x2="1211" y1="299.484" y2="299.484"/></g><!--class PlayerGemsUI--><g id="elem_PlayerGemsUI"><rect codeLine="27" fill="#F1F1F1" height="48" id="PlayerGemsUI" rx="2.5" ry="2.5" style="stroke:#181818;stroke-width:0.5;" width="130" x="1569" y="259.484"/><ellipse cx="1584" cy="275.484" fill="#ADD1B2" rx="11" ry="11" style="stroke:#181818;stroke-width:1.0;"/><path d="M1586.3438,271.1559 C1585.4063,270.7184 1584.8125,270.5778 1583.9375,270.5778 C1581.3125,270.5778 1579.3125,272.6559 1579.3125,275.3746 L1579.3125,276.4996 C1579.3125,279.0778 1581.4219,280.9684 1584.3125,280.9684 C1585.5313,280.9684 1586.6875,280.6715 1587.4375,280.1246 C1588.0156,279.7184 1588.3438,279.2653 1588.3438,278.8746 C1588.3438,278.4215 1587.9531,278.0309 1587.4844,278.0309 C1587.2656,278.0309 1587.0625,278.109 1586.875,278.2965 C1586.4219,278.7809 1586.4219,278.7809 1586.2344,278.8746 C1585.8125,279.1403 1585.125,279.2653 1584.3594,279.2653 C1582.3125,279.2653 1581.0156,278.1715 1581.0156,276.4684 L1581.0156,275.3746 C1581.0156,273.5934 1582.2656,272.2809 1584,272.2809 C1584.5781,272.2809 1585.1875,272.4371 1585.6563,272.6871 C1586.1406,272.9684 1586.3125,273.1871 1586.4063,273.5934 C1586.4688,273.9996 1586.5,274.1246 1586.6406,274.2496 C1586.7813,274.3903 1587.0156,274.4996 1587.2344,274.4996 C1587.5,274.4996 1587.7656,274.359 1587.9375,274.1403 C1588.0469,273.984 1588.0781,273.7965 1588.0781,273.3746 L1588.0781,271.9528 C1588.0781,271.5153 1588.0625,271.3903 1587.9688,271.234 C1587.8125,270.9684 1587.5313,270.8278 1587.2344,270.8278 C1586.9375,270.8278 1586.7344,270.9215 1586.5156,271.234 L1586.3438,271.1559 Z " fill="#000000"/><text fill="#000000" font-family="sans-serif" font-size="14" lengthAdjust="spacing" textLength="98" x="1598" y="280.3307">PlayerGemsUI</text><line style="stroke:#181818;stroke-width:0.5;" x1="1570" x2="1698" y1="291.484" y2="291.484"/><line style="stroke:#181818;stroke-width:0.5;" x1="1570" x2="1698" y1="299.484" y2="299.484"/></g><!--class PlayerNameUI--><g id="elem_PlayerNameUI"><rect codeLine="28" fill="#F1F1F1" height="48" id="PlayerNameUI" rx="2.5" ry="2.5" style="stroke:#181818;stroke-width:0.5;" width="130" x="1404" y="259.484"/><ellipse cx="1419" cy="275.484" fill="#ADD1B2" rx="11" ry="11" style="stroke:#181818;stroke-width:1.0;"/><path d="M1421.3438,271.1559 C1420.4063,270.7184 1419.8125,270.5778 1418.9375,270.5778 C1416.3125,270.5778 1414.3125,272.6559 1414.3125,275.3746 L1414.3125,276.4996 C1414.3125,279.0778 1416.4219,280.9684 1419.3125,280.9684 C1420.5313,280.9684 1421.6875,280.6715 1422.4375,280.1246 C1423.0156,279.7184 1423.3438,279.2653 1423.3438,278.8746 C1423.3438,278.4215 1422.9531,278.0309 1422.4844,278.0309 C1422.2656,278.0309 1422.0625,278.109 1421.875,278.2965 C1421.4219,278.7809 1421.4219,278.7809 1421.2344,278.8746 C1420.8125,279.1403 1420.125,279.2653 1419.3594,279.2653 C1417.3125,279.2653 1416.0156,278.1715 1416.0156,276.4684 L1416.0156,275.3746 C1416.0156,273.5934 1417.2656,272.2809 1419,272.2809 C1419.5781,272.2809 1420.1875,272.4371 1420.6563,272.6871 C1421.1406,272.9684 1421.3125,273.1871 1421.4063,273.5934 C1421.4688,273.9996 1421.5,274.1246 1421.6406,274.2496 C1421.7813,274.3903 1422.0156,274.4996 1422.2344,274.4996 C1422.5,274.4996 1422.7656,274.359 1422.9375,274.1403 C1423.0469,273.984 1423.0781,273.7965 1423.0781,273.3746 L1423.0781,271.9528 C1423.0781,271.5153 1423.0625,271.3903 1422.9688,271.234 C1422.8125,270.9684 1422.5313,270.8278 1422.2344,270.8278 C1421.9375,270.8278 1421.7344,270.9215 1421.5156,271.234 L1421.3438,271.1559 Z " fill="#000000"/><text fill="#000000" font-family="sans-serif" font-size="14" lengthAdjust="spacing" textLength="98" x="1433" y="280.3307">PlayerNameUI</text><line style="stroke:#181818;stroke-width:0.5;" x1="1405" x2="1533" y1="291.484" y2="291.484"/><line style="stroke:#181818;stroke-width:0.5;" x1="1405" x2="1533" y1="299.484" y2="299.484"/></g><!--class PlayerPoints--><g id="elem_PlayerPoints"><rect codeLine="29" fill="#F1F1F1" height="48" id="PlayerPoints" rx="2.5" ry="2.5" style="stroke:#181818;stroke-width:0.5;" width="121" x="1247.5" y="259.484"/><ellipse cx="1262.5" cy="275.484" fill="#ADD1B2" rx="11" ry="11" style="stroke:#181818;stroke-width:1.0;"/><path d="M1264.8438,271.1559 C1263.9063,270.7184 1263.3125,270.5778 1262.4375,270.5778 C1259.8125,270.5778 1257.8125,272.6559 1257.8125,275.3746 L1257.8125,276.4996 C1257.8125,279.0778 1259.9219,280.9684 1262.8125,280.9684 C1264.0313,280.9684 1265.1875,280.6715 1265.9375,280.1246 C1266.5156,279.7184 1266.8438,279.2653 1266.8438,278.8746 C1266.8438,278.4215 1266.4531,278.0309 1265.9844,278.0309 C1265.7656,278.0309 1265.5625,278.109 1265.375,278.2965 C1264.9219,278.7809 1264.9219,278.7809 1264.7344,278.8746 C1264.3125,279.1403 1263.625,279.2653 1262.8594,279.2653 C1260.8125,279.2653 1259.5156,278.1715 1259.5156,276.4684 L1259.5156,275.3746 C1259.5156,273.5934 1260.7656,272.2809 1262.5,272.2809 C1263.0781,272.2809 1263.6875,272.4371 1264.1563,272.6871 C1264.6406,272.9684 1264.8125,273.1871 1264.9063,273.5934 C1264.9688,273.9996 1265,274.1246 1265.1406,274.2496 C1265.2813,274.3903 1265.5156,274.4996 1265.7344,274.4996 C1266,274.4996 1266.2656,274.359 1266.4375,274.1403 C1266.5469,273.984 1266.5781,273.7965 1266.5781,273.3746 L1266.5781,271.9528 C1266.5781,271.5153 1266.5625,271.3903 1266.4688,271.234 C1266.3125,270.9684 1266.0313,270.8278 1265.7344,270.8278 C1265.4375,270.8278 1265.2344,270.9215 1265.0156,271.234 L1264.8438,271.1559 Z " fill="#000000"/><text fill="#000000" font-family="sans-serif" font-size="14" lengthAdjust="spacing" textLength="89" x="1276.5" y="280.3307">PlayerPoints</text><line style="stroke:#181818;stroke-width:0.5;" x1="1248.5" x2="1367.5" y1="291.484" y2="291.484"/><line style="stroke:#181818;stroke-width:0.5;" x1="1248.5" x2="1367.5" y1="299.484" y2="299.484"/></g><!--class PlayerUI--><g id="elem_PlayerUI"><rect codeLine="30" fill="#F1F1F1" height="48" id="PlayerUI" rx="2.5" ry="2.5" style="stroke:#181818;stroke-width:0.5;" width="89" x="1734.5" y="259.484"/><ellipse cx="1749.5" cy="275.484" fill="#ADD1B2" rx="11" ry="11" style="stroke:#181818;stroke-width:1.0;"/><path d="M1751.8438,271.1559 C1750.9063,270.7184 1750.3125,270.5778 1749.4375,270.5778 C1746.8125,270.5778 1744.8125,272.6559 1744.8125,275.3746 L1744.8125,276.4996 C1744.8125,279.0778 1746.9219,280.9684 1749.8125,280.9684 C1751.0313,280.9684 1752.1875,280.6715 1752.9375,280.1246 C1753.5156,279.7184 1753.8438,279.2653 1753.8438,278.8746 C1753.8438,278.4215 1753.4531,278.0309 1752.9844,278.0309 C1752.7656,278.0309 1752.5625,278.109 1752.375,278.2965 C1751.9219,278.7809 1751.9219,278.7809 1751.7344,278.8746 C1751.3125,279.1403 1750.625,279.2653 1749.8594,279.2653 C1747.8125,279.2653 1746.5156,278.1715 1746.5156,276.4684 L1746.5156,275.3746 C1746.5156,273.5934 1747.7656,272.2809 1749.5,272.2809 C1750.0781,272.2809 1750.6875,272.4371 1751.1563,272.6871 C1751.6406,272.9684 1751.8125,273.1871 1751.9063,273.5934 C1751.9688,273.9996 1752,274.1246 1752.1406,274.2496 C1752.2813,274.3903 1752.5156,274.4996 1752.7344,274.4996 C1753,274.4996 1753.2656,274.359 1753.4375,274.1403 C1753.5469,273.984 1753.5781,273.7965 1753.5781,273.3746 L1753.5781,271.9528 C1753.5781,271.5153 1753.5625,271.3903 1753.4688,271.234 C1753.3125,270.9684 1753.0313,270.8278 1752.7344,270.8278 C1752.4375,270.8278 1752.2344,270.9215 1752.0156,271.234 L1751.8438,271.1559 Z " fill="#000000"/><text fill="#000000" font-family="sans-serif" font-size="14" lengthAdjust="spacing" textLength="57" x="1763.5" y="280.3307">PlayerUI</text><line style="stroke:#181818;stroke-width:0.5;" x1="1735.5" x2="1822.5" y1="291.484" y2="291.484"/><line style="stroke:#181818;stroke-width:0.5;" x1="1735.5" x2="1822.5" y1="299.484" y2="299.484"/></g><!--reverse link CardUI to Card--><g id="link_CardUI_Card"><path codeLine="34" d="M1152.9744,422.7826 C1170.6244,435.6206 1183.98,444.156 1206,455.484 C1228.76,467.19 1237.91,462.557 1260,475.484 C1316.88,508.768 1327.49,523.819 1373,571.484 C1385.7,584.786 1398.35,601.133 1407.87,614.2302 " fill="none" id="CardUI-backto-Card" style="stroke:#181818;stroke-width:1.0;"/><polygon fill="none" points="1143.27,415.724,1145.7693,422.4881,1152.9744,422.7826,1150.4751,416.0185,1143.27,415.724" style="stroke:#181818;stroke-width:1.0;"/><text fill="#000000" font-family="sans-serif" font-size="13" lengthAdjust="spacing" textLength="7" x="1396.0852" y="603.5733">*</text></g><!--reverse link GemmesUI to EnumGemmes--><g id="link_GemmesUI_EnumGemmes"><path codeLine="36" d="M1212.0351,533.4164 C1230.4251,558.6094 1252.53,588.893 1270.95,614.1298 " fill="none" id="GemmesUI-backto-EnumGemmes" style="stroke:#181818;stroke-width:1.0;"/><polygon fill="none" points="1204.96,523.724,1205.2668,530.9286,1212.0351,533.4164,1211.7284,526.2118,1204.96,523.724" style="stroke:#181818;stroke-width:1.0;"/><text fill="#000000" font-family="sans-serif" font-size="13" lengthAdjust="spacing" textLength="8" x="1257.8191" y="603.4484">1</text></g><!--reverse link PrivilegeBoardUI to PrivilegeUI--><g id="link_PrivilegeBoardUI_PrivilegeUI"><path codeLine="38" d="M339,319.484 C339,337.142 339,349.425 339,367.162 " fill="none" id="PrivilegeBoardUI-backto-PrivilegeUI" style="stroke:#181818;stroke-width:1.0;"/><polygon fill="#181818" points="339,307.484,335,313.484,339,319.484,343,313.484,339,307.484" style="stroke:#181818;stroke-width:1.0;"/><text fill="#000000" font-family="sans-serif" font-size="13" lengthAdjust="spacing" textLength="7" x="331.1469" y="356.4885">*</text></g><!--reverse link SingletonSplendorDuel to CompleteBoardUI--><g id="link_SingletonSplendorDuel_CompleteBoardUI"><path codeLine="40" d="M542,180.724 C542,205.917 542,233.893 542,259.13 " fill="none" id="SingletonSplendorDuel-backto-CompleteBoardUI" style="stroke:#181818;stroke-width:1.0;"/><polygon fill="#181818" points="542,168.724,538,174.724,542,180.724,546,174.724,542,168.724" style="stroke:#181818;stroke-width:1.0;"/><text fill="#000000" font-family="sans-serif" font-size="13" lengthAdjust="spacing" textLength="8" x="533.025" y="248.4487">1</text></g><!--reverse link SingletonSplendorDuel to PlayerUI--><g id="link_SingletonSplendorDuel_PlayerUI"><path codeLine="41" d="M653.382,145.3986 C919.428,145.7886 1622.06,151.429 1716,200.484 C1740.19,213.115 1757.86,239.655 1768.23,259.134 " fill="none" id="SingletonSplendorDuel-backto-PlayerUI" style="stroke:#181818;stroke-width:1.0;"/><polygon fill="#181818" points="641.382,145.381,647.3761,149.3898,653.382,145.3986,647.3879,141.3898,641.382,145.381" style="stroke:#181818;stroke-width:1.0;"/><text fill="#000000" font-family="sans-serif" font-size="13" lengthAdjust="spacing" textLength="8" x="1756.6298" y="248.4536">2</text></g><!--reverse link SingletonSplendorDuel to PrivilegeBoardUI--><g id="link_SingletonSplendorDuel_PrivilegeBoardUI"><path codeLine="42" d="M488.2594,174.5218 C471.4904,183.9178 462.792,189.312 446,200.484 C418.331,218.893 388.436,242.109 367.297,259.136 " fill="none" id="SingletonSplendorDuel-backto-PrivilegeBoardUI" style="stroke:#181818;stroke-width:1.0;"/><polygon fill="#181818" points="498.728,168.656,491.5384,168.0993,488.2594,174.5218,495.4489,175.0784,498.728,168.656" style="stroke:#181818;stroke-width:1.0;"/><text fill="#000000" font-family="sans-serif" font-size="13" lengthAdjust="spacing" textLength="8" x="365.2194" y="248.4561">1</text></g><!--reverse link SingletonSplendorDuel to InformationMessageUI--><g id="link_SingletonSplendorDuel_InformationMessageUI"><path codeLine="43" d="M490.4869,173.8766 C472.0709,183.0976 460.41,187.361 439,192.484 C397.469,202.422 287.334,186.457 247,200.484 C211.972,212.666 178.451,239.576 157.147,259.259 " fill="none" id="SingletonSplendorDuel-backto-InformationMessageUI" style="stroke:#181818;stroke-width:1.0;"/><polygon fill="#181818" points="501.217,168.504,494.0611,167.6136,490.4869,173.8766,497.6428,174.767,501.217,168.504" style="stroke:#181818;stroke-width:1.0;"/><text fill="#000000" font-family="sans-serif" font-size="13" lengthAdjust="spacing" textLength="8" x="153.8141" y="248.6091">1</text></g><!--link SingletonSplendorDuel to BackgroundWidgetUI--><g id="link_SingletonSplendorDuel_BackgroundWidgetUI"><path codeLine="44" d="M641.171,144.895 C763.998,146.161 964.021,155.385 1021,200.484 C1075.46,243.586 1020.91,302.708 1074,347.484 C1079.95,352.502 1152.0853,364.9114 1217.7853,375.4194 " fill="none" id="SingletonSplendorDuel-to-BackgroundWidgetUI" style="stroke:#181818;stroke-width:1.0;stroke-dasharray:7.0,7.0;"/><polygon fill="#181818" points="1223.71,376.367,1215.4547,370.9958,1218.7727,375.5773,1214.1912,378.8954,1223.71,376.367" style="stroke:#181818;stroke-width:1.0;"/></g><!--reverse link BoardCard to Card--><g id="link_BoardCard_Card"><path codeLine="46" d="M936.9969,317.5381 C947.0229,331.7701 954.978,339.017 973,347.484 C1019.71,369.427 1401.31,330.217 1437,367.484 C1501.92,435.266 1457.47,561.934 1434.91,614.1071 " fill="none" id="BoardCard-backto-Card" style="stroke:#181818;stroke-width:1.0;"/><polygon fill="#181818" points="930.086,307.728,930.2714,314.9367,936.9969,317.5381,936.8115,310.3294,930.086,307.728" style="stroke:#181818;stroke-width:1.0;"/><text fill="#000000" font-family="sans-serif" font-size="13" lengthAdjust="spacing" textLength="24" x="1410.6443" y="603.4202">0..5</text></g><!--reverse link BoardUI to GemmesUI--><g id="link_BoardUI_GemmesUI"><path codeLine="48" d="M564.8464,425.0732 C575.7604,439.2402 584.382,446.777 603,455.484 C650.277,477.594 996.97,491.867 1133.23,496.677 " fill="none" id="BoardUI-backto-GemmesUI" style="stroke:#181818;stroke-width:1.0;"/><polygon fill="#181818" points="557.523,415.567,558.016,422.7612,564.8464,425.0732,564.3534,417.879,557.523,415.567" style="stroke:#181818;stroke-width:1.0;"/><text fill="#000000" font-family="sans-serif" font-size="13" lengthAdjust="spacing" textLength="32" x="1093.4895" y="492.6238">0..25</text></g><!--reverse link CompleteBoardUI to BoardUI--><g id="link_CompleteBoardUI_BoardUI"><path codeLine="50" d="M542,319.484 C542,337.142 542,349.425 542,367.162 " fill="none" id="CompleteBoardUI-backto-BoardUI" style="stroke:#181818;stroke-width:1.0;"/><polygon fill="none" points="542,307.484,538,313.484,542,319.484,546,313.484,542,307.484" style="stroke:#181818;stroke-width:1.0;"/><text fill="#000000" font-family="sans-serif" font-size="13" lengthAdjust="spacing" textLength="8" x="533.025" y="356.4885">1</text></g><!--reverse link CompleteBoardUI to RemplirBoard--><g id="link_CompleteBoardUI_RemplirBoard"><path codeLine="51" d="M582.91,314.5979 C606.898,332.2559 630.221,349.425 654.318,367.162 " fill="none" id="CompleteBoardUI-backto-RemplirBoard" style="stroke:#181818;stroke-width:1.0;"/><polygon fill="#181818" points="573.246,307.484,575.7067,314.2623,582.91,314.5979,580.4493,307.8196,573.246,307.484" style="stroke:#181818;stroke-width:1.0;"/><text fill="#000000" font-family="sans-serif" font-size="13" lengthAdjust="spacing" textLength="8" x="637.6205" y="356.4885">1</text></g><!--reverse link PersonnageBoardUI to CardUI--><g id="link_PersonnageBoardUI_CardUI"><path codeLine="53" d="M782.1348,314.5053 C801.8088,328.3153 818.763,338.057 845,347.484 C904.566,368.885 923.515,357.398 986,367.484 C1015.53,372.251 1048.8,378.301 1073.88,382.999 " fill="none" id="PersonnageBoardUI-backto-CardUI" style="stroke:#181818;stroke-width:1.0;"/><polygon fill="#181818" points="772.313,307.611,774.9258,314.3321,782.1348,314.5053,779.522,307.7842,772.313,307.611" style="stroke:#181818;stroke-width:1.0;"/><text fill="#000000" font-family="sans-serif" font-size="13" lengthAdjust="spacing" textLength="7" x="1059.0219" y="377.1309">*</text></g><!--reverse link PlayerCardUI to CardUI--><g id="link_PlayerCardUI_CardUI"><path codeLine="55" d="M1138.7006,318.7801 C1132.3706,336.4381 1127.72,349.425 1121.36,367.162 " fill="none" id="PlayerCardUI-backto-CardUI" style="stroke:#181818;stroke-width:1.0;"/><polygon fill="#181818" points="1142.75,307.484,1136.9599,311.7823,1138.7006,318.7801,1144.4907,314.4819,1142.75,307.484" style="stroke:#181818;stroke-width:1.0;"/><text fill="#000000" font-family="sans-serif" font-size="13" lengthAdjust="spacing" textLength="7" x="1115.5446" y="356.4885">*</text></g><!--reverse link PlayerGemsUI to GemmesUI--><g id="link_PlayerGemsUI_GemmesUI"><path codeLine="57" d="M1602.4165,315.8463 C1586.8965,330.0813 1573.91,339.028 1551,347.484 C1514.98,360.78 1234.2,341.421 1206,367.484 C1176.58,394.675 1178.91,445.664 1183.37,475.374 " fill="none" id="PlayerGemsUI-backto-GemmesUI" style="stroke:#181818;stroke-width:1.0;"/><polygon fill="#181818" points="1611.26,307.735,1604.1345,308.8428,1602.4165,315.8463,1609.542,314.7385,1611.26,307.735" style="stroke:#181818;stroke-width:1.0;"/><text fill="#000000" font-family="sans-serif" font-size="13" lengthAdjust="spacing" textLength="8" x="1173.1586" y="464.3578">7</text></g><!--reverse link PlayerPoints to CardUI--><g id="link_PlayerPoints_CardUI"><path codeLine="59" d="M1274.125,315.6004 C1259.265,328.5894 1248.55,336.442 1229,347.484 C1221.96,351.458 1183.11,365.621 1152.28,376.619 " fill="none" id="PlayerPoints-backto-CardUI" style="stroke:#181818;stroke-width:1.0;"/><polygon fill="#181818" points="1283.16,307.703,1276.01,308.64,1274.125,315.6004,1281.275,314.6634,1283.16,307.703" style="stroke:#181818;stroke-width:1.0;"/><text fill="#000000" font-family="sans-serif" font-size="13" lengthAdjust="spacing" textLength="8" x="1159.9892" y="369.714">3</text></g><!--reverse link PlayerPoints to Player--><g id="link_PlayerPoints_Player"><path codeLine="60" d="M1339.3037,315.8255 C1353.8837,329.4635 1365.21,337.71 1386,347.484 C1426.63,366.579 1453.81,335.205 1485,367.484 C1551.05,435.829 1541.36,562.18 1533.96,614.1879 " fill="none" id="PlayerPoints-backto-Player" style="stroke:#181818;stroke-width:1.0;"/><polygon fill="#181818" points="1330.54,307.628,1332.1893,314.6479,1339.3037,315.8255,1337.6543,308.8055,1330.54,307.628" style="stroke:#181818;stroke-width:1.0;"/><text fill="#000000" font-family="sans-serif" font-size="13" lengthAdjust="spacing" textLength="8" x="1525.9503" y="603.5207">1</text></g><!--reverse link PlayerUI to Player--><g id="link_PlayerUI_Player"><path codeLine="62" d="M1755.7439,317.4515 C1710.6339,381.4135 1591.59,550.174 1546.4,614.2374 " fill="none" id="PlayerUI-backto-Player" style="stroke:#181818;stroke-width:1.0;"/><polygon fill="none" points="1762.66,307.645,1755.9331,310.2429,1755.7439,317.4515,1762.4708,314.8536,1762.66,307.645" style="stroke:#181818;stroke-width:1.0;"/><text fill="#000000" font-family="sans-serif" font-size="13" lengthAdjust="spacing" textLength="8" x="1541.4225" y="603.5822">1</text></g><!--link PlayerUI to BackgroundWidgetUI--><g id="link_PlayerUI_BackgroundWidgetUI"><path codeLine="63" d="M1762.45,307.678 C1751.08,321.699 1734.7,338.541 1716,347.484 C1663.02,372.822 1525.2738,382.653 1424.2038,386.947 " fill="none" id="PlayerUI-to-BackgroundWidgetUI" style="stroke:#181818;stroke-width:1.0;"/><polygon fill="none" points="1406.22,387.711,1424.4585,392.9415,1423.9491,380.9524,1406.22,387.711" style="stroke:#181818;stroke-width:1.0;"/></g><!--reverse link Image to UI--><g id="link_Image_UI"><path codeLine="65" d="M1974.6336,115.4681 C1955.9236,87.9831 1924.47,49.452 1881.5,31.484 C1834.29,11.746 83.869,6 39.5,31.484 C28.862,37.5943 21.8458,47.2085 17.3294,58.31 C15.0712,63.8607 13.438,69.7832 12.2894,75.8254 C12.2177,76.2031 12.1478,76.5812 12.0797,76.9597 " fill="none" id="Image-backto-UI" style="stroke:#181818;stroke-width:1.0;stroke-dasharray:7.0,7.0;"/><polygon fill="#181818" points="1978.01,120.428,1976.252,110.7373,1975.1964,116.2948,1969.6389,115.2391,1978.01,120.428" style="stroke:#181818;stroke-width:1.0;"/></g><!--reverse link Image to Board--><g id="link_Image_Board"><path codeLine="66" d="M1951.2957,171.486 C1934.4657,180.841 1919.04,187.65 1899,192.484 C1876.72,197.857 1094.73,190.712 1074,200.484 C1052.795,210.4795 1035.7475,230.5 1023.9025,248.2558 C1020.9412,252.6947 1018.3052,256.9921 1016.0105,260.9559 C1015.4369,261.9468 1014.8846,262.917 1014.3539,263.8632 C1014.0885,264.3363 1013.8286,264.8035 1013.574,265.2643 C1013.4468,265.4947 1013.3209,265.7236 1013.1963,265.9508 C1013.1341,266.0644 1013.0721,266.1776 1013.0105,266.2903 " fill="none" id="Image-backto-Board" style="stroke:#181818;stroke-width:1.0;stroke-dasharray:7.0,7.0;"/><polygon fill="#181818" points="1956.54,168.571,1946.7302,169.4474,1952.1698,171.0002,1950.6169,176.4398,1956.54,168.571" style="stroke:#181818;stroke-width:1.0;"/></g><!--reverse link Image to Player--><g id="link_Image_Player"><path codeLine="67" d="M1966.0748,173.0135 C1947.2598,192.2515 1924.205,215.8208 1901.3813,239.1539 C1889.9694,250.8204 1879.6641,261.3556 1872.073,269.116 C1871.1241,270.0861 1870.2176,271.0128 1869.3567,271.8929 C1868.9262,272.333 1868.5071,272.7614 1868.0998,273.1778 C1867.8962,273.386 1867.6955,273.5912 1867.4978,273.7933 C1867.3989,273.8944 1867.3008,273.9947 1867.2035,274.0942 " fill="none" id="Image-backto-Player" style="stroke:#181818;stroke-width:1.0;stroke-dasharray:7.0,7.0;"/><polygon fill="#181818" points="1970.27,168.724,1961.1175,172.3615,1966.774,172.2986,1966.8369,177.9551,1970.27,168.724" style="stroke:#181818;stroke-width:1.0;"/></g><!--SRC=[XLHTQuCm57tFhmW-2ihMCVOozj1k564RibBs7EfT2DD44ZiONV_xOZHfD6fzClUSUt8_ZjRay4qeu6XBAdWLb1qYV49dX6eBx1jMgZQ8zNCeYL8ugrhaXCz3OZPahJL0fJZoufCL59fzPb8kX0sHHH3SGbM12i8P_nAo8WqJ_0sKqXS6b5oo7rO2XRMO4dPmWEmOfoKqWk_g4dWXvFCHIiCn9DUWqRKzUdssuRON9pl2l0kzvaMbRsjWdf63L89pGXSu7w1Lc3G41u_hpalo2p8il8jlPkytiDw7Me3VjMqMu5mmtgXPsCiqNkfh4Kc2epZ2pfDf2o3al648jpxXXH-h3aOeC4BSwtaMG6Xwwt6lF5hF4diLkMwkY8uBkqAVylnCIfe-JNnl25syQKHlqlG-7EjWJ9goQZdzgFLEHaQrixSzZ75RlMzDlPF0p7OftSurmtTZF8NrLZI93tw90wyP-CxbXjZ0Dnri9IQjrLCS8qd-feVT_HOVKwmFzhqzfDqC1g5ExHy0]--></g></svg>